<!DOCTYPE svg PUBLIC "-//W3C//DTD SVG 20010904//EN" "http://www.w3.org/TR/2001/REC-SVG-20010904/DTD/svg10.dtd">
<svg version="1.0" xmlns="http://www.w3.org/2000/svg" width="1600px" height="773px" viewBox="0 0 16000 7730" preserveAspectRatio="xMidYMid meet">
<g id="layer101" fill="#3a5367" stroke="none">
 <path d="M3235 7039 c-501 -25 -955 -99 -1346 -219 -252 -77 -419 -143 -419 -165 0 -7 -9 -24 -20 -37 -13 -18 -18 -36 -15 -59 4 -30 15 -470 15 -577 0 -39 5 -49 53 -96 32 -32 82 -67 129 -90 72 -36 76 -40 70 -65 -4 -14 -7 -89 -7 -166 0 -111 4 -153 19 -200 35 -108 94 -183 177 -224 50 -25 124 -87 151 -128 l28 -41 -25 -43 c-50 -88 -25 -254 51 -338 33 -36 59 -53 126 -79 l84 -33 46 -92 c64 -127 83 -171 124 -290 40 -114 68 -213 78 -269 4 -21 11 -38 16 -38 27 0 282 122 805 386 595 300 692 345 900 421 251 91 431 134 658 154 l137 13 0 47 c0 27 -9 73 -21 104 l-20 55 28 42 c30 45 105 107 163 135 19 9 40 22 48 29 7 8 19 17 25 21 28 17 80 117 98 185 21 81 26 278 9 337 -11 40 -7 46 74 86 60 31 137 95 154 130 6 12 13 153 17 324 3 167 8 308 11 313 3 5 -4 28 -15 51 -19 40 -25 44 -133 86 -484 187 -1000 293 -1565 321 -317 16 -526 19 -708 9z m-518 -514 c61 -31 98 -76 125 -153 44 -126 -25 -268 -148 -302 -96 -27 -211 5 -272 74 -28 32 -62 117 -62 155 0 44 36 134 68 172 70 82 189 104 289 54z m-495 -814 c36 -14 87 -71 100 -112 42 -142 -147 -268 -270 -180 -39 28 -66 97 -59 152 7 53 50 117 90 134 37 16 105 19 139 6z m336 -697 c52 -36 68 -121 32 -167 -42 -53 -135 -59 -179 -13 -47 50 -30 154 29 183 35 17 91 16 118 -3z"/>
 <path d="M10899 5959 c-175 -25 -293 -126 -351 -298 -22 -65 -23 -77 -26 -613 l-3 -548 195 0 195 0 3 513 c3 498 4 513 24 552 37 71 109 98 228 84 89 -9 139 -33 189 -88 l37 -41 0 -510 0 -510 190 0 190 0 0 720 0 720 -179 0 -178 0 -7 -70 -7 -71 -47 42 c-116 102 -278 144 -453 118z"/>
 <path d="M12620 5960 c-175 -24 -290 -79 -405 -195 -92 -91 -140 -174 -177 -300 -20 -70 -23 -100 -22 -240 2 -187 19 -271 84 -401 124 -246 380 -378 673 -346 274 30 451 178 527 442 18 59 23 111 27 248 l6 172 -462 0 -461 0 0 25 c0 43 40 132 79 177 134 152 423 151 580 -2 l44 -43 21 25 c12 14 54 63 95 108 l74 81 -69 68 c-76 74 -192 139 -295 165 -74 19 -238 27 -319 16z m330 -927 c-2 -170 -141 -276 -317 -243 -114 21 -185 105 -218 258 l-7 32 271 0 271 0 0 -47z"/>
 <path d="M8070 4969 l0 -971 438 5 c399 4 445 7 527 26 235 55 381 180 430 366 30 117 13 270 -40 361 -35 59 -111 131 -166 157 -27 12 -48 24 -49 27 0 3 22 13 49 23 100 35 192 125 234 229 19 46 22 72 21 193 0 123 -3 147 -24 200 -58 149 -174 253 -345 309 -113 37 -245 46 -667 46 l-408 0 0 -971z m826 640 c91 -16 161 -61 194 -124 20 -40 25 -64 25 -125 0 -96 -23 -158 -76 -203 -62 -53 -92 -59 -341 -64 l-228 -5 0 266 0 266 182 0 c100 0 210 -5 244 -11z m57 -832 c83 -41 111 -86 116 -189 5 -129 -25 -184 -124 -230 -46 -21 -66 -23 -262 -26 l-213 -4 0 242 0 241 213 -3 c210 -3 213 -3 270 -31z"/>
 <path d="M9820 4145 l0 -1795 179 0 179 0 6 31 c3 17 6 47 6 66 l0 35 53 -46 c101 -86 227 -124 374 -111 143 12 252 63 340 159 65 70 107 153 140 272 26 92 28 112 28 289 0 167 -3 200 -24 275 -77 284 -273 450 -531 450 -120 0 -222 -34 -312 -103 l-48 -37 0 1155 0 1155 -195 0 -195 0 0 -1795z m770 -706 c55 -30 104 -94 126 -162 22 -68 31 -316 14 -401 -16 -80 -49 -144 -99 -188 -46 -42 -93 -58 -174 -58 -95 0 -144 17 -199 70 l-48 46 0 295 c0 323 -1 319 65 370 79 63 229 76 315 28z"/>
 <path d="M14042 4689 c2 -17 11 -22 42 -25 51 -4 84 -28 103 -71 12 -30 14 -94 11 -387 -3 -323 -5 -354 -22 -380 -17 -27 -21 -28 -76 -23 -55 5 -70 -1 -70 -28 0 -9 304 -125 329 -125 l31 0 0 463 c0 542 -4 522 94 547 42 10 56 19 56 32 0 17 -16 18 -251 18 -249 0 -250 0 -247 -21z"/>
 <path d="M1770 4620 c-88 -88 0 -212 109 -155 84 43 46 175 -50 175 -26 0 -46 -7 -59 -20z"/>
 <path d="M4875 4505 c-225 -26 -435 -84 -750 -208 -71 -28 -398 -186 -725 -350 -327 -165 -650 -324 -718 -353 -219 -96 -451 -175 -643 -221 -106 -25 -130 -27 -334 -28 -206 0 -224 1 -290 24 -122 41 -226 105 -328 200 -26 24 -49 42 -52 40 -6 -6 119 -221 167 -288 108 -149 258 -264 397 -307 57 -17 420 -19 590 -3 117 11 314 51 429 87 l62 20 5 -22 c5 -22 25 -296 25 -338 0 -22 -7 -26 -92 -43 -51 -10 -97 -21 -103 -25 -5 -3 -29 -12 -53 -20 -35 -11 -48 -22 -72 -65 -37 -65 -40 -121 -8 -170 13 -19 34 -39 48 -45 39 -18 173 -60 192 -60 52 0 22 -49 -69 -110 -55 -38 -73 -56 -97 -105 -28 -55 -30 -69 -31 -162 l0 -101 -55 -23 c-30 -12 -61 -26 -67 -32 -10 -7 -13 -118 -13 -495 l0 -485 23 -19 c50 -45 192 -103 346 -143 99 -26 131 -29 194 -19 l37 7 0 150 0 150 75 -7 c42 -4 82 -9 90 -12 11 -5 14 -41 17 -174 2 -93 5 -171 8 -174 10 -10 327 -30 465 -30 140 0 509 20 533 29 9 3 12 48 12 178 l0 173 70 12 c39 7 75 12 80 12 6 0 10 -59 10 -150 0 -134 2 -151 18 -158 29 -11 144 -8 192 6 140 42 243 79 301 109 65 34 67 36 73 80 7 56 8 920 0 948 -3 14 -25 29 -64 44 l-59 24 0 94 c1 156 -21 194 -171 306 -30 23 -50 45 -48 54 2 10 37 25 102 45 55 16 112 38 128 49 30 22 58 76 58 114 0 52 -52 130 -100 152 -64 28 -205 63 -257 63 -13 0 -31 8 -41 18 -23 23 -21 47 38 525 18 142 26 190 60 347 5 25 12 63 16 85 3 22 17 81 30 130 14 50 29 106 34 127 11 40 -1 34 204 104 270 92 433 119 676 111 134 -4 166 -9 239 -33 89 -29 187 -88 288 -172 34 -29 65 -52 68 -52 10 0 -60 124 -130 230 -105 159 -250 285 -393 341 -52 21 -75 23 -287 25 -147 2 -274 -2 -350 -11z"/>
 <path d="M13290 4185 l0 -85 288 2 287 3 3 83 3 82 -291 0 -290 0 0 -85z"/>
 <path d="M2071 4134 c-60 -76 18 -177 102 -132 50 26 62 86 26 132 -16 21 -29 26 -64 26 -35 0 -48 -5 -64 -26z"/>
 <path d="M14620 3943 c1 -10 33 -43 72 -73 106 -82 279 -258 310 -315 58 -108 56 -192 -6 -254 -34 -33 -41 -36 -108 -39 -87 -4 -121 13 -170 83 -60 85 -91 46 -42 -53 59 -120 197 -170 343 -126 68 20 145 93 160 152 15 53 0 118 -42 192 -31 54 -184 217 -282 299 l-50 42 167 -3 c167 -3 167 -3 195 -30 34 -32 80 -39 68 -10 -4 9 -18 47 -32 85 l-25 67 -279 0 c-259 0 -279 -1 -279 -17z"/>
 <path d="M1665 3895 c-18 -18 -25 -35 -25 -65 0 -54 26 -80 80 -80 84 0 119 83 61 141 -38 37 -82 39 -116 4z"/>
 <path d="M7375 3760 c-155 -23 -280 -84 -386 -190 -152 -150 -216 -355 -190 -605 21 -198 72 -321 181 -438 78 -84 163 -137 275 -174 70 -23 97 -26 215 -27 213 0 339 44 460 164 127 126 180 280 183 537 l2 138 -464 3 -463 2 7 37 c20 107 113 209 222 243 148 46 324 9 433 -91 l45 -41 92 99 c51 54 92 100 93 103 0 11 -96 103 -137 132 -64 43 -178 89 -263 104 -80 14 -223 16 -305 4z m355 -902 c0 -67 -36 -146 -82 -181 -48 -37 -140 -59 -210 -51 -87 9 -153 54 -195 130 -18 33 -36 82 -39 107 l-7 47 267 0 266 0 0 -52z"/>
 <path d="M8890 3764 c-217 -38 -313 -86 -432 -212 -69 -75 -126 -177 -154 -282 -27 -96 -24 -336 5 -443 51 -193 142 -319 297 -412 206 -124 525 -124 722 2 114 72 207 202 247 348 12 41 19 115 22 233 l5 172 -462 0 -462 0 7 38 c17 95 90 187 182 229 143 66 369 27 472 -81 19 -20 38 -36 41 -36 3 0 48 46 100 101 l94 102 -70 66 c-75 71 -178 129 -281 156 -56 15 -282 28 -333 19z m327 -920 c-7 -93 -43 -150 -121 -188 -47 -24 -72 -30 -125 -30 -147 0 -221 54 -265 193 -14 45 -26 84 -26 87 0 2 122 4 271 4 l272 0 -6 -66z"/>
 <path d="M11867 3754 c-248 -45 -426 -195 -514 -434 -27 -72 -28 -83 -28 -255 0 -207 10 -259 76 -394 31 -62 60 -102 113 -156 133 -134 274 -189 486 -189 209 0 334 46 455 168 125 127 173 261 182 519 l6 157 -466 0 -466 0 5 33 c19 100 90 188 187 233 56 26 72 29 167 29 140 0 224 -31 316 -117 l31 -29 92 98 c50 54 91 100 91 103 0 3 -14 22 -30 42 -39 48 -163 130 -237 158 -128 49 -312 62 -466 34z m389 -901 c-13 -109 -72 -190 -158 -214 -64 -19 -156 -17 -210 4 -79 31 -148 126 -164 228 l-7 39 273 0 273 0 -7 -57z"/>
 <path d="M5090 2804 l0 -935 398 3 c447 5 453 6 617 82 172 81 297 208 385 390 77 162 85 204 84 466 0 261 -12 320 -88 475 -116 233 -327 387 -606 439 -65 13 -158 16 -436 16 l-354 0 0 -936z m722 615 c124 -26 233 -109 288 -219 56 -111 65 -164 65 -400 0 -198 -2 -221 -24 -290 -31 -100 -50 -136 -106 -198 -87 -97 -199 -132 -422 -132 l-123 0 0 625 0 625 135 0 c73 0 158 -5 187 -11z"/>
 <path d="M12860 3045 l0 -695 185 0 185 0 0 75 c0 43 4 75 10 75 6 0 10 -4 10 -9 0 -5 25 -34 56 -64 75 -76 138 -100 261 -101 52 0 97 4 103 10 7 7 10 72 8 183 l-3 173 -130 2 c-118 1 -135 3 -187 28 -38 18 -67 40 -87 69 l-31 42 0 454 0 453 -190 0 -190 0 0 -695z"/>
 <path d="M14254 3331 c-39 -17 -74 -70 -74 -113 0 -56 51 -108 107 -108 112 0 161 122 79 199 -26 25 -81 35 -112 22z"/>
 </g>
<g id="layer102" fill="#305b83" stroke="none">
 <path d="M1444 6380 c0 -52 1 -74 3 -47 2 26 2 68 0 95 -2 26 -3 4 -3 -48z"/>
 <path d="M10899 5959 c-175 -25 -293 -126 -351 -298 -22 -65 -23 -77 -26 -613 l-3 -548 195 0 195 0 3 513 c3 498 4 513 24 552 37 71 109 98 228 84 89 -9 139 -33 189 -88 l37 -41 0 -510 0 -510 190 0 190 0 0 720 0 720 -179 0 -178 0 -7 -70 -7 -71 -47 42 c-116 102 -278 144 -453 118z"/>
 <path d="M12620 5960 c-175 -24 -290 -79 -405 -195 -92 -91 -140 -174 -177 -300 -20 -70 -23 -100 -22 -240 2 -187 19 -271 84 -401 124 -246 380 -378 673 -346 274 30 451 178 527 442 18 59 23 111 27 248 l6 172 -462 0 -461 0 0 25 c0 43 40 132 79 177 134 152 423 151 580 -2 l44 -43 21 25 c12 14 54 63 95 108 l74 81 -69 68 c-76 74 -192 139 -295 165 -74 19 -238 27 -319 16z m330 -927 c-2 -170 -141 -276 -317 -243 -114 21 -185 105 -218 258 l-7 32 271 0 271 0 0 -47z"/>
 <path d="M8070 4969 l0 -971 438 5 c399 4 445 7 527 26 235 55 381 180 430 366 30 117 13 270 -40 361 -35 59 -111 131 -166 157 -27 12 -48 24 -49 27 0 3 22 13 49 23 100 35 192 125 234 229 19 46 22 72 21 193 0 123 -3 147 -24 200 -58 149 -174 253 -345 309 -113 37 -245 46 -667 46 l-408 0 0 -971z m826 640 c91 -16 161 -61 194 -124 20 -40 25 -64 25 -125 0 -96 -23 -158 -76 -203 -62 -53 -92 -59 -341 -64 l-228 -5 0 266 0 266 182 0 c100 0 210 -5 244 -11z m57 -832 c83 -41 111 -86 116 -189 5 -129 -25 -184 -124 -230 -46 -21 -66 -23 -262 -26 l-213 -4 0 242 0 241 213 -3 c210 -3 213 -3 270 -31z"/>
 <path d="M9820 5110 l0 -830 195 0 195 0 0 830 0 830 -195 0 -195 0 0 -830z"/>
 <path d="M1770 4620 c-88 -88 0 -212 109 -155 84 43 46 175 -50 175 -26 0 -46 -7 -59 -20z"/>
 <path d="M4875 4505 c-225 -26 -435 -84 -750 -208 -71 -28 -398 -186 -725 -350 -327 -165 -650 -324 -718 -353 -219 -96 -451 -175 -643 -221 -106 -25 -130 -27 -334 -28 -206 0 -224 1 -290 24 -122 41 -226 105 -328 200 -26 24 -49 42 -52 40 -6 -6 119 -221 167 -288 108 -149 258 -264 397 -307 57 -17 420 -19 590 -3 117 11 314 51 429 87 l62 20 5 -22 c5 -22 25 -296 25 -338 0 -22 -7 -26 -92 -43 -51 -10 -97 -21 -103 -25 -5 -3 -29 -12 -53 -20 -35 -11 -48 -22 -72 -65 -37 -65 -40 -121 -8 -170 13 -19 34 -39 48 -45 39 -18 173 -60 192 -60 52 0 22 -49 -69 -110 -55 -38 -73 -56 -97 -105 -28 -55 -30 -69 -31 -162 l0 -101 -55 -23 c-30 -12 -61 -26 -67 -32 -10 -7 -13 -118 -13 -495 l0 -485 23 -19 c50 -45 192 -103 346 -143 99 -26 131 -29 194 -19 l37 7 0 150 0 150 75 -7 c42 -4 82 -9 90 -12 11 -5 14 -41 17 -174 2 -93 5 -171 8 -174 10 -10 327 -30 465 -30 140 0 509 20 533 29 9 3 12 48 12 178 l0 173 70 12 c39 7 75 12 80 12 6 0 10 -59 10 -150 0 -134 2 -151 18 -158 29 -11 144 -8 192 6 140 42 243 79 301 109 65 34 67 36 73 80 7 56 8 920 0 948 -3 14 -25 29 -64 44 l-59 24 0 94 c1 156 -21 194 -171 306 -30 23 -50 45 -48 54 2 10 37 25 102 45 55 16 112 38 128 49 30 22 58 76 58 114 0 52 -52 130 -100 152 -64 28 -205 63 -257 63 -13 0 -31 8 -41 18 -23 23 -21 47 38 525 18 142 26 190 60 347 5 25 12 63 16 85 3 22 17 81 30 130 14 50 29 106 34 127 11 40 -1 34 204 104 270 92 433 119 676 111 134 -4 166 -9 239 -33 89 -29 187 -88 288 -172 34 -29 65 -52 68 -52 10 0 -60 124 -130 230 -105 159 -250 285 -393 341 -52 21 -75 23 -287 25 -147 2 -274 -2 -350 -11z"/>
 <path d="M2071 4134 c-60 -76 18 -177 102 -132 50 26 62 86 26 132 -16 21 -29 26 -64 26 -35 0 -48 -5 -64 -26z"/>
 <path d="M1665 3895 c-18 -18 -25 -35 -25 -65 0 -54 26 -80 80 -80 84 0 119 83 61 141 -38 37 -82 39 -116 4z"/>
 <path d="M8283 3070 c0 -36 2 -50 4 -32 2 17 2 47 0 65 -2 17 -4 3 -4 -33z"/>
 </g>
<g id="layer103" fill="#698195" stroke="none">
 <path d="M1444 6380 c0 -52 1 -74 3 -47 2 26 2 68 0 95 -2 26 -3 4 -3 -48z"/>
 <path d="M10899 5959 c-175 -25 -293 -126 -351 -298 -22 -65 -23 -77 -26 -613 l-3 -548 195 0 195 0 3 513 c3 498 4 513 24 552 37 71 109 98 228 84 89 -9 139 -33 189 -88 l37 -41 0 -510 0 -510 190 0 190 0 0 720 0 720 -179 0 -178 0 -7 -70 -7 -71 -47 42 c-116 102 -278 144 -453 118z"/>
 <path d="M12620 5960 c-175 -24 -290 -79 -405 -195 -92 -91 -140 -174 -177 -300 -20 -70 -23 -100 -22 -240 2 -187 19 -271 84 -401 124 -246 380 -378 673 -346 274 30 451 178 527 442 18 59 23 111 27 248 l6 172 -462 0 -461 0 0 25 c0 43 40 132 79 177 134 152 423 151 580 -2 l44 -43 21 25 c12 14 54 63 95 108 l74 81 -69 68 c-76 74 -192 139 -295 165 -74 19 -238 27 -319 16z m330 -927 c-2 -170 -141 -276 -317 -243 -114 21 -185 105 -218 258 l-7 32 271 0 271 0 0 -47z"/>
 <path d="M8070 4969 l0 -971 438 5 c399 4 445 7 527 26 235 55 381 180 430 366 30 117 13 270 -40 361 -35 59 -111 131 -166 157 -27 12 -48 24 -49 27 0 3 22 13 49 23 100 35 192 125 234 229 19 46 22 72 21 193 0 123 -3 147 -24 200 -58 149 -174 253 -345 309 -113 37 -245 46 -667 46 l-408 0 0 -971z m826 640 c91 -16 161 -61 194 -124 20 -40 25 -64 25 -125 0 -96 -23 -158 -76 -203 -62 -53 -92 -59 -341 -64 l-228 -5 0 266 0 266 182 0 c100 0 210 -5 244 -11z m57 -832 c83 -41 111 -86 116 -189 5 -129 -25 -184 -124 -230 -46 -21 -66 -23 -262 -26 l-213 -4 0 242 0 241 213 -3 c210 -3 213 -3 270 -31z"/>
 <path d="M9820 5110 l0 -830 195 0 195 0 0 830 0 830 -195 0 -195 0 0 -830z"/>
 <path d="M1770 4620 c-88 -88 0 -212 109 -155 84 43 46 175 -50 175 -26 0 -46 -7 -59 -20z"/>
 <path d="M2071 4134 c-60 -76 18 -177 102 -132 50 26 62 86 26 132 -16 21 -29 26 -64 26 -35 0 -48 -5 -64 -26z"/>
 <path d="M4470 3958 c-155 -63 -289 -128 -810 -394 -504 -257 -654 -327 -862 -404 -112 -41 -117 -44 -112 -69 5 -29 24 -292 24 -332 0 -24 -5 -26 -92 -44 -51 -10 -97 -21 -103 -25 -5 -3 -29 -12 -53 -20 -35 -11 -48 -22 -72 -65 -37 -65 -40 -121 -7 -170 12 -19 33 -39 47 -45 39 -18 173 -60 192 -60 52 0 22 -49 -69 -110 -55 -38 -73 -56 -97 -105 -28 -55 -30 -69 -31 -162 l0 -101 -55 -23 c-30 -12 -61 -26 -67 -32 -10 -7 -13 -118 -13 -495 l0 -485 23 -19 c50 -45 192 -103 346 -143 99 -26 131 -29 194 -19 l37 7 0 150 0 150 75 -7 c42 -4 82 -9 90 -12 11 -5 14 -41 17 -174 2 -93 5 -171 8 -174 10 -10 327 -30 465 -30 140 0 509 20 533 29 9 3 12 48 12 178 l0 173 70 12 c39 7 75 12 80 12 6 0 10 -59 10 -150 0 -134 2 -151 18 -158 29 -11 144 -8 192 6 140 42 243 79 301 109 65 34 67 36 73 80 7 56 8 920 0 948 -3 14 -25 29 -64 44 l-59 24 0 94 c1 156 -21 194 -171 306 -30 23 -50 45 -48 54 2 10 37 25 102 45 55 16 112 38 128 49 30 22 58 76 58 114 0 52 -52 130 -100 152 -64 28 -205 63 -257 63 -13 0 -31 8 -41 18 -16 16 -17 28 -11 103 16 170 66 567 80 626 6 27 14 68 19 93 24 131 43 216 69 315 16 60 29 110 28 111 -1 1 -45 -16 -97 -38z"/>
 <path d="M1665 3895 c-18 -18 -25 -35 -25 -65 0 -54 26 -80 80 -80 84 0 119 83 61 141 -38 37 -82 39 -116 4z"/>
 <path d="M8283 3070 c0 -36 2 -50 4 -32 2 17 2 47 0 65 -2 17 -4 3 -4 -33z"/>
 </g>

</svg>