<!DOCTYPE svg PUBLIC "-//W3C//DTD SVG 20010904//EN" "http://www.w3.org/TR/2001/REC-SVG-20010904/DTD/svg10.dtd">
<svg version="1.0" xmlns="http://www.w3.org/2000/svg" width="1239px" height="1600px" viewBox="0 0 12390 16000" preserveAspectRatio="xMidYMid meet">
<g id="layer101" fill="#385369" stroke="none">
 <path d="M5819 15996 c-2 -2 -128 -9 -279 -15 -469 -20 -951 -59 -1320 -107 -107 -13 -229 -29 -270 -34 -134 -18 -492 -79 -725 -125 -325 -64 -864 -200 -1135 -287 -493 -157 -925 -319 -936 -350 -3 -11 -15 -18 -29 -18 -19 0 -24 -7 -30 -41 -4 -22 -17 -50 -28 -62 -36 -37 -50 -73 -44 -112 3 -20 2 -47 -3 -59 -5 -14 -5 -27 1 -33 16 -16 40 -1217 25 -1242 -4 -5 -2 -49 3 -96 6 -48 10 -90 9 -94 -2 -7 42 -101 57 -119 26 -34 200 -182 214 -182 6 0 16 -9 23 -20 7 -11 21 -20 30 -20 10 0 18 -4 18 -10 0 -5 9 -10 20 -10 11 0 20 -4 20 -10 0 -5 9 -10 20 -10 11 0 20 -4 20 -10 0 -5 9 -10 20 -10 11 0 20 -4 20 -10 0 -5 9 -10 20 -10 11 0 20 -4 20 -10 0 -5 9 -10 20 -10 11 0 20 -4 20 -10 0 -5 9 -10 20 -10 11 0 20 -4 20 -10 0 -5 9 -10 19 -10 24 0 35 -15 25 -32 -5 -7 -9 -19 -10 -28 -1 -8 -10 -61 -19 -118 -14 -86 -16 -143 -11 -345 6 -248 9 -301 20 -327 3 -8 7 -26 9 -40 2 -14 7 -32 10 -40 4 -8 20 -53 36 -100 32 -93 66 -164 93 -194 10 -11 18 -25 18 -31 0 -7 9 -20 20 -30 11 -10 20 -24 20 -31 0 -8 12 -22 28 -31 34 -23 62 -51 85 -85 9 -16 24 -28 32 -28 8 0 18 -6 22 -14 4 -7 42 -30 83 -49 190 -90 376 -255 434 -384 19 -44 19 -48 -14 -98 -71 -109 -79 -134 -87 -296 -5 -85 -5 -155 -1 -157 4 -2 8 -14 8 -26 0 -58 80 -289 110 -316 3 -3 30 -38 59 -77 30 -40 60 -73 67 -73 6 0 17 -7 24 -15 14 -16 115 -65 136 -65 8 0 14 -4 14 -10 0 -5 7 -10 15 -10 9 0 30 -7 47 -16 17 -9 69 -29 116 -46 83 -28 112 -46 112 -67 0 -6 5 -11 10 -11 6 0 10 -7 10 -15 0 -8 5 -15 10 -15 6 0 10 -7 10 -15 0 -8 5 -15 10 -15 6 0 10 -9 10 -19 0 -11 4 -21 8 -23 12 -5 102 -192 102 -211 0 -9 3 -17 8 -17 8 0 32 -49 32 -67 0 -7 5 -13 10 -13 6 0 10 -9 10 -20 0 -11 5 -20 10 -20 6 0 10 -5 10 -12 0 -6 13 -39 29 -72 32 -66 82 -195 113 -291 10 -33 23 -69 28 -80 12 -24 39 -102 40 -113 0 -4 15 -56 34 -117 59 -191 77 -258 93 -340 3 -16 9 -34 13 -40 5 -5 14 -39 21 -75 7 -36 16 -68 19 -73 6 -7 255 96 495 205 144 66 639 311 885 439 107 55 375 190 595 300 220 109 432 215 470 235 541 277 755 384 885 444 85 39 184 85 219 101 316 147 1194 460 1416 504 39 8 156 32 260 55 190 41 524 81 810 98 l120 7 3 94 c3 116 -16 215 -63 322 -19 44 -35 86 -35 92 0 24 117 192 161 232 57 52 162 126 219 155 25 13 47 25 50 29 14 18 92 61 110 61 11 0 20 7 20 16 0 19 24 44 42 44 8 0 20 9 28 20 8 11 22 20 32 20 11 0 18 7 18 18 0 10 9 24 20 32 11 8 20 20 20 27 0 7 5 13 10 13 6 0 10 6 10 14 0 8 11 24 25 37 13 13 25 27 25 31 0 4 14 36 30 70 17 34 30 72 30 85 0 13 5 23 10 23 6 0 10 11 10 25 0 14 5 25 10 25 6 0 10 18 10 39 0 22 5 43 10 46 6 3 10 28 10 56 0 27 5 49 10 49 6 0 10 33 10 80 0 47 4 80 10 80 6 0 10 58 10 154 0 93 -4 157 -10 161 -5 3 -10 42 -10 86 0 46 -4 79 -10 79 -5 0 -10 23 -10 50 0 28 -4 50 -10 50 -5 0 -10 9 -10 20 0 11 4 20 10 20 5 0 20 11 34 25 14 14 32 25 41 25 8 0 15 5 15 10 0 6 9 10 20 10 11 0 20 5 20 10 0 6 7 10 15 10 8 0 15 5 15 10 0 6 9 10 20 10 11 0 20 5 20 10 0 6 9 10 20 10 11 0 34 14 52 30 17 17 37 30 45 30 7 0 21 9 30 20 10 11 23 20 29 20 16 0 165 147 182 179 6 13 12 30 12 37 0 8 4 14 9 14 5 0 8 26 8 58 -2 110 23 1098 33 1285 6 104 15 197 20 207 6 11 6 20 1 22 -5 2 -11 14 -13 28 -1 14 -13 43 -25 65 -12 22 -29 54 -39 71 -10 19 -31 36 -58 47 -22 8 -120 48 -216 87 -137 55 -651 234 -835 290 -135 40 -270 77 -610 165 -71 19 -254 59 -405 89 -779 157 -1411 231 -2365 277 -137 6 -292 14 -342 16 -64 4 -93 1 -93 -6 0 -6 -19 -11 -45 -11 -25 0 -45 5 -45 10 0 9 -481 15 -491 6z m-1767 -1231 c107 -28 168 -64 253 -150 93 -93 136 -162 177 -283 28 -81 30 -95 25 -192 -14 -288 -171 -495 -424 -555 -105 -25 -281 -17 -382 18 -173 61 -314 200 -371 367 -71 206 -10 471 147 640 70 75 157 126 263 154 74 20 237 20 312 1z m-1074 -2065 c109 -58 199 -180 231 -313 15 -61 0 -161 -35 -230 -123 -241 -495 -315 -676 -134 -89 88 -133 236 -108 359 30 148 117 276 218 320 73 33 100 37 207 34 92 -2 106 -5 163 -36z m747 -1677 c61 -21 128 -86 161 -158 35 -76 39 -113 19 -181 -22 -78 -104 -161 -184 -187 -122 -39 -253 -11 -320 69 -115 140 -53 388 115 454 61 24 145 25 209 3z"/>
 <path d="M1905 10068 c-50 -17 -89 -53 -118 -106 -56 -103 -45 -212 27 -288 128 -132 396 -38 414 145 9 96 -60 208 -150 246 -42 17 -128 19 -173 3z"/>
 <path d="M10130 9779 c-335 -7 -425 -13 -845 -55 -56 -6 -210 -36 -435 -85 -271 -59 -729 -210 -1180 -388 -345 -137 -544 -232 -1405 -670 -44 -22 -280 -140 -524 -261 -245 -122 -468 -234 -496 -250 -111 -62 -838 -422 -980 -485 -436 -195 -892 -372 -1255 -485 -74 -23 -155 -49 -180 -57 -25 -8 -65 -18 -90 -23 -25 -4 -76 -15 -115 -25 -403 -96 -461 -104 -865 -111 -235 -4 -358 -2 -486 9 -159 14 -181 18 -322 65 -184 62 -306 119 -432 204 -120 81 -304 224 -395 308 -38 35 -82 75 -97 89 -20 18 -4 -20 67 -152 127 -238 162 -298 276 -467 115 -171 184 -258 282 -359 182 -187 376 -330 577 -424 223 -105 294 -116 745 -116 632 0 1023 29 1385 105 277 58 371 82 558 142 84 27 155 46 157 42 6 -9 13 -66 19 -155 2 -33 7 -67 10 -75 5 -14 36 -353 36 -395 0 -11 3 -86 6 -167 l6 -148 -35 0 c-20 0 -39 -4 -42 -10 -3 -5 -26 -10 -51 -10 -24 0 -52 -4 -62 -10 -9 -5 -71 -23 -137 -40 -215 -53 -354 -107 -402 -157 -18 -18 -33 -38 -33 -43 0 -6 -4 -10 -10 -10 -5 0 -10 -9 -10 -20 0 -11 -4 -20 -10 -20 -5 0 -10 -7 -10 -15 0 -8 -4 -15 -10 -15 -5 0 -10 -8 -10 -17 0 -10 -8 -31 -18 -48 -25 -42 -23 -211 3 -273 10 -23 22 -42 27 -42 4 0 8 -6 8 -13 0 -16 72 -87 88 -87 7 0 12 -4 12 -10 0 -5 9 -10 20 -10 11 0 20 -4 20 -10 0 -5 11 -10 25 -10 14 0 25 -4 25 -10 0 -5 14 -10 30 -10 17 0 30 -4 30 -10 0 -5 14 -10 30 -10 17 0 30 -4 30 -9 0 -5 25 -12 55 -16 30 -3 55 -11 55 -16 0 -5 18 -9 40 -9 22 0 40 -4 40 -10 0 -5 23 -10 50 -10 28 0 50 -4 50 -10 0 -5 8 -10 19 -10 31 0 44 -23 30 -54 -7 -14 -16 -26 -21 -26 -4 0 -8 -6 -8 -14 0 -28 -213 -196 -250 -196 -6 0 -22 -11 -35 -24 -13 -13 -32 -30 -42 -38 -59 -43 -155 -218 -168 -307 -2 -13 -7 -31 -11 -40 -18 -43 -24 -263 -11 -404 l7 -77 -30 0 c-16 0 -32 -4 -35 -10 -3 -5 -17 -10 -30 -10 -13 0 -27 -5 -30 -10 -9 -14 -141 -80 -160 -80 -8 0 -15 -4 -15 -10 0 -5 -9 -10 -20 -10 -20 0 -20 -7 -20 -1200 l0 -1201 45 -44 c24 -25 51 -45 59 -45 7 0 19 -7 26 -15 10 -12 132 -74 215 -109 17 -7 48 -21 70 -31 50 -22 377 -131 453 -151 315 -84 339 -86 504 -54 57 11 104 20 106 20 1 0 2 164 2 365 l0 365 115 0 c70 0 115 -4 115 -10 0 -6 28 -10 65 -10 37 0 65 -4 65 -10 0 -5 13 -10 30 -10 49 0 53 -38 47 -400 -7 -367 0 -443 42 -459 35 -13 426 -49 634 -57 92 -4 167 -11 167 -15 0 -12 667 -12 672 0 2 4 113 13 248 20 357 17 670 42 721 57 14 4 17 49 23 407 4 221 10 417 13 435 l5 32 69 0 c39 0 69 4 69 10 0 6 26 10 59 10 33 0 61 4 63 8 2 5 24 12 51 15 l47 7 0 -374 0 -374 58 -11 c31 -6 86 -18 122 -26 83 -19 116 -19 187 1 32 8 78 19 103 24 148 28 677 195 700 221 10 11 110 59 123 59 8 0 24 9 37 20 13 11 26 20 30 20 8 0 46 30 78 62 19 20 22 33 22 100 0 42 5 80 10 83 7 4 10 387 10 1116 0 733 -3 1109 -10 1109 -5 0 -10 7 -10 16 0 24 -19 38 -105 79 -44 20 -81 41 -83 46 -2 5 -17 9 -33 9 -16 0 -29 5 -29 10 0 6 -7 10 -16 10 -8 0 -22 7 -31 15 -13 13 -14 33 -7 128 5 62 8 121 7 132 0 11 -4 61 -7 110 -6 86 -51 266 -68 273 -4 2 -8 12 -8 23 0 10 -4 19 -10 19 -5 0 -10 7 -10 15 0 8 -31 45 -70 81 -38 37 -70 73 -70 80 0 8 -10 14 -22 14 -48 0 -202 120 -286 225 -21 25 -7 65 23 65 14 0 25 5 25 10 0 6 18 10 40 10 22 0 40 5 40 10 0 6 15 10 34 10 19 0 37 4 41 9 3 5 34 13 70 16 36 4 68 11 71 16 3 5 14 9 24 9 11 0 35 9 55 20 20 11 47 20 60 20 14 0 25 5 25 10 0 6 7 10 15 10 8 0 15 5 15 10 0 6 7 10 15 10 8 0 15 5 15 10 0 6 7 10 15 10 8 0 15 5 15 10 0 6 7 10 16 10 9 0 18 9 21 20 3 11 9 20 14 20 5 0 9 9 9 20 0 11 5 20 10 20 6 0 10 14 10 30 0 17 5 30 10 30 6 0 10 20 10 45 0 25 4 45 9 45 5 0 9 23 9 50 1 28 -3 50 -9 50 -5 0 -9 7 -9 15 0 8 -4 15 -10 15 -5 0 -10 11 -10 25 0 14 -4 25 -10 25 -5 0 -10 9 -10 20 0 12 -10 31 -22 44 -13 12 -39 45 -57 73 -24 34 -44 53 -62 57 -15 3 -33 11 -40 18 -21 21 -202 76 -341 104 -68 13 -131 29 -140 34 -10 6 -36 10 -57 10 -22 0 -43 5 -46 10 -3 6 -28 10 -55 10 -27 0 -52 5 -55 10 -3 6 -17 10 -29 10 -41 0 -51 25 -48 119 6 182 67 791 107 1076 8 55 15 126 15 157 0 31 5 60 10 63 6 3 10 37 10 76 0 39 4 69 10 69 6 0 10 27 10 60 0 33 4 60 8 60 4 0 16 48 26 108 66 395 212 1038 283 1252 l18 55 130 47 c290 106 668 230 770 253 33 7 112 25 175 39 63 14 155 35 203 46 210 48 730 75 992 50 72 -7 166 -15 210 -20 53 -5 130 -24 230 -57 166 -56 278 -108 400 -187 107 -70 342 -255 432 -340 41 -38 76 -67 78 -64 6 5 -92 191 -199 376 -283 493 -581 799 -974 1000 -159 82 -260 111 -447 127 -88 8 -178 14 -200 13 -22 -1 -204 -5 -405 -9z"/>
 <path d="M2667 8896 c-87 -32 -140 -110 -141 -211 -1 -140 109 -227 248 -196 182 41 240 223 112 354 -62 64 -136 82 -219 53z"/>
 <path d="M1660 8298 c-117 -33 -184 -187 -131 -303 49 -109 179 -145 298 -83 132 67 151 233 39 336 -62 57 -127 73 -206 50z"/>
 </g>
<g id="layer102" fill="#2f5b83" stroke="none">
 <path d="M5943 15993 c71 -2 183 -2 250 0 67 1 10 3 -128 3 -137 0 -192 -2 -122 -3z"/>
 <path d="M6443 15993 c26 -2 67 -2 90 0 23 2 2 3 -48 3 -49 0 -68 -1 -42 -3z"/>
 <path d="M3863 14783 c20 -2 54 -2 75 0 20 2 3 4 -38 4 -41 0 -58 -2 -37 -4z"/>
 <path d="M1905 10068 c-50 -17 -89 -53 -118 -106 -56 -103 -45 -212 27 -288 128 -132 396 -38 414 145 9 96 -60 208 -150 246 -42 17 -128 19 -173 3z"/>
 <path d="M10130 9779 c-335 -7 -425 -13 -845 -55 -56 -6 -210 -36 -435 -85 -271 -59 -729 -210 -1180 -388 -345 -137 -544 -232 -1405 -670 -44 -22 -280 -140 -524 -261 -245 -122 -468 -234 -496 -250 -111 -62 -838 -422 -980 -485 -436 -195 -892 -372 -1255 -485 -74 -23 -155 -49 -180 -57 -25 -8 -65 -18 -90 -23 -25 -4 -76 -15 -115 -25 -403 -96 -461 -104 -865 -111 -235 -4 -358 -2 -486 9 -159 14 -181 18 -322 65 -184 62 -306 119 -432 204 -120 81 -304 224 -395 308 -38 35 -82 75 -97 89 -20 18 -4 -20 67 -152 127 -238 162 -298 276 -467 115 -171 184 -258 282 -359 182 -187 376 -330 577 -424 223 -105 294 -116 745 -116 632 0 1023 29 1385 105 277 58 371 82 558 142 84 27 155 46 157 42 6 -9 13 -66 19 -155 2 -33 7 -67 10 -75 5 -14 36 -353 36 -395 0 -11 3 -86 6 -167 l6 -148 -35 0 c-20 0 -39 -4 -42 -10 -3 -5 -26 -10 -51 -10 -24 0 -52 -4 -62 -10 -9 -5 -71 -23 -137 -40 -215 -53 -354 -107 -402 -157 -18 -18 -33 -38 -33 -43 0 -6 -4 -10 -10 -10 -5 0 -10 -9 -10 -20 0 -11 -4 -20 -10 -20 -5 0 -10 -7 -10 -15 0 -8 -4 -15 -10 -15 -5 0 -10 -8 -10 -17 0 -10 -8 -31 -18 -48 -25 -42 -23 -211 3 -273 10 -23 22 -42 27 -42 4 0 8 -6 8 -13 0 -16 72 -87 88 -87 7 0 12 -4 12 -10 0 -5 9 -10 20 -10 11 0 20 -4 20 -10 0 -5 11 -10 25 -10 14 0 25 -4 25 -10 0 -5 14 -10 30 -10 17 0 30 -4 30 -10 0 -5 14 -10 30 -10 17 0 30 -4 30 -9 0 -5 25 -12 55 -16 30 -3 55 -11 55 -16 0 -5 18 -9 40 -9 22 0 40 -4 40 -10 0 -5 23 -10 50 -10 28 0 50 -4 50 -10 0 -5 8 -10 19 -10 31 0 44 -23 30 -54 -7 -14 -16 -26 -21 -26 -4 0 -8 -6 -8 -14 0 -28 -213 -196 -250 -196 -6 0 -22 -11 -35 -24 -13 -13 -32 -30 -42 -38 -59 -43 -155 -218 -168 -307 -2 -13 -7 -31 -11 -40 -18 -43 -24 -263 -11 -404 l7 -77 -30 0 c-16 0 -32 -4 -35 -10 -3 -5 -17 -10 -30 -10 -13 0 -27 -5 -30 -10 -9 -14 -141 -80 -160 -80 -8 0 -15 -4 -15 -10 0 -5 -9 -10 -20 -10 -20 0 -20 -7 -20 -1200 l0 -1201 45 -44 c24 -25 51 -45 59 -45 7 0 19 -7 26 -15 10 -12 132 -74 215 -109 17 -7 48 -21 70 -31 50 -22 377 -131 453 -151 315 -84 339 -86 504 -54 57 11 104 20 106 20 1 0 2 164 2 365 l0 365 115 0 c70 0 115 -4 115 -10 0 -6 28 -10 65 -10 37 0 65 -4 65 -10 0 -5 13 -10 30 -10 49 0 53 -38 47 -400 -7 -367 0 -443 42 -459 35 -13 426 -49 634 -57 92 -4 167 -11 167 -15 0 -12 667 -12 672 0 2 4 113 13 248 20 357 17 670 42 721 57 14 4 17 49 23 407 4 221 10 417 13 435 l5 32 69 0 c39 0 69 4 69 10 0 6 26 10 59 10 33 0 61 4 63 8 2 5 24 12 51 15 l47 7 0 -374 0 -374 58 -11 c31 -6 86 -18 122 -26 83 -19 116 -19 187 1 32 8 78 19 103 24 148 28 677 195 700 221 10 11 110 59 123 59 8 0 24 9 37 20 13 11 26 20 30 20 8 0 46 30 78 62 19 20 22 33 22 100 0 42 5 80 10 83 7 4 10 387 10 1116 0 733 -3 1109 -10 1109 -5 0 -10 7 -10 16 0 24 -19 38 -105 79 -44 20 -81 41 -83 46 -2 5 -17 9 -33 9 -16 0 -29 5 -29 10 0 6 -7 10 -16 10 -8 0 -22 7 -31 15 -13 13 -14 33 -7 128 5 62 8 121 7 132 0 11 -4 61 -7 110 -6 86 -51 266 -68 273 -4 2 -8 12 -8 23 0 10 -4 19 -10 19 -5 0 -10 7 -10 15 0 8 -31 45 -70 81 -38 37 -70 73 -70 80 0 8 -10 14 -22 14 -48 0 -202 120 -286 225 -21 25 -7 65 23 65 14 0 25 5 25 10 0 6 18 10 40 10 22 0 40 5 40 10 0 6 15 10 34 10 19 0 37 4 41 9 3 5 34 13 70 16 36 4 68 11 71 16 3 5 14 9 24 9 11 0 35 9 55 20 20 11 47 20 60 20 14 0 25 5 25 10 0 6 7 10 15 10 8 0 15 5 15 10 0 6 7 10 15 10 8 0 15 5 15 10 0 6 7 10 15 10 8 0 15 5 15 10 0 6 7 10 16 10 9 0 18 9 21 20 3 11 9 20 14 20 5 0 9 9 9 20 0 11 5 20 10 20 6 0 10 14 10 30 0 17 5 30 10 30 6 0 10 20 10 45 0 25 4 45 9 45 5 0 9 23 9 50 1 28 -3 50 -9 50 -5 0 -9 7 -9 15 0 8 -4 15 -10 15 -5 0 -10 11 -10 25 0 14 -4 25 -10 25 -5 0 -10 9 -10 20 0 12 -10 31 -22 44 -13 12 -39 45 -57 73 -24 34 -44 53 -62 57 -15 3 -33 11 -40 18 -21 21 -202 76 -341 104 -68 13 -131 29 -140 34 -10 6 -36 10 -57 10 -22 0 -43 5 -46 10 -3 6 -28 10 -55 10 -27 0 -52 5 -55 10 -3 6 -17 10 -29 10 -41 0 -51 25 -48 119 6 182 67 791 107 1076 8 55 15 126 15 157 0 31 5 60 10 63 6 3 10 37 10 76 0 39 4 69 10 69 6 0 10 27 10 60 0 33 4 60 8 60 4 0 16 48 26 108 66 395 212 1038 283 1252 l18 55 130 47 c290 106 668 230 770 253 33 7 112 25 175 39 63 14 155 35 203 46 210 48 730 75 992 50 72 -7 166 -15 210 -20 53 -5 130 -24 230 -57 166 -56 278 -108 400 -187 107 -70 342 -255 432 -340 41 -38 76 -67 78 -64 6 5 -92 191 -199 376 -283 493 -581 799 -974 1000 -159 82 -260 111 -447 127 -88 8 -178 14 -200 13 -22 -1 -204 -5 -405 -9z"/>
 <path d="M2667 8896 c-87 -32 -140 -110 -141 -211 -1 -140 109 -227 248 -196 182 41 240 223 112 354 -62 64 -136 82 -219 53z"/>
 <path d="M1660 8298 c-117 -33 -184 -187 -131 -303 49 -109 179 -145 298 -83 132 67 151 233 39 336 -62 57 -127 73 -206 50z"/>
 </g>
<g id="layer103" fill="#698195" stroke="none">
 <path d="M3863 14783 c20 -2 54 -2 75 0 20 2 3 4 -38 4 -41 0 -58 -2 -37 -4z"/>
 <path d="M1905 10068 c-50 -17 -89 -53 -118 -106 -56 -103 -45 -212 27 -288 128 -132 396 -38 414 145 9 96 -60 208 -150 246 -42 17 -128 19 -173 3z"/>
 <path d="M2667 8896 c-87 -32 -140 -110 -141 -211 -1 -140 109 -227 248 -196 182 41 240 223 112 354 -62 64 -136 82 -219 53z"/>
 <path d="M8477 8400 c-332 -137 -584 -255 -1007 -468 -201 -102 -594 -301 -875 -442 -280 -141 -598 -303 -705 -360 -586 -312 -1138 -557 -1667 -740 l-151 -52 8 -28 c4 -16 9 -61 11 -102 2 -40 6 -84 10 -98 7 -22 39 -354 39 -405 0 -11 3 -86 6 -167 l6 -148 -35 0 c-20 0 -39 -4 -42 -10 -3 -5 -26 -10 -51 -10 -24 0 -52 -4 -62 -10 -9 -5 -71 -23 -137 -40 -215 -53 -354 -107 -402 -157 -18 -18 -33 -38 -33 -43 0 -6 -4 -10 -10 -10 -5 0 -10 -9 -10 -20 0 -11 -4 -20 -10 -20 -5 0 -10 -7 -10 -15 0 -8 -4 -15 -10 -15 -5 0 -10 -8 -10 -17 0 -10 -8 -31 -18 -48 -25 -42 -23 -211 3 -272 10 -24 22 -43 27 -43 4 0 8 -6 8 -13 0 -16 72 -87 88 -87 7 0 12 -4 12 -10 0 -5 9 -10 20 -10 11 0 20 -4 20 -10 0 -5 11 -10 25 -10 14 0 25 -4 25 -10 0 -5 14 -10 30 -10 17 0 30 -4 30 -10 0 -5 14 -10 30 -10 17 0 30 -4 30 -9 0 -5 25 -12 55 -16 30 -3 55 -11 55 -16 0 -5 18 -9 40 -9 22 0 40 -4 40 -10 0 -5 23 -10 50 -10 28 0 50 -4 50 -10 0 -5 8 -10 19 -10 31 0 44 -23 30 -54 -7 -14 -16 -26 -21 -26 -4 0 -8 -6 -8 -14 0 -28 -213 -196 -250 -196 -6 0 -22 -11 -35 -24 -13 -13 -32 -30 -42 -38 -59 -43 -155 -218 -168 -307 -2 -13 -7 -31 -11 -40 -18 -43 -24 -263 -11 -404 l7 -77 -30 0 c-16 0 -32 -4 -35 -10 -3 -5 -17 -10 -30 -10 -13 0 -27 -5 -30 -10 -9 -14 -141 -80 -160 -80 -8 0 -15 -4 -15 -10 0 -5 -9 -10 -20 -10 -20 0 -20 -7 -20 -1200 l0 -1201 45 -44 c24 -25 51 -45 59 -45 7 0 19 -7 26 -15 10 -12 132 -74 215 -109 17 -7 48 -21 70 -31 50 -22 377 -131 453 -151 315 -84 339 -86 504 -54 57 11 104 20 106 20 1 0 2 164 2 365 l0 365 115 0 c70 0 115 -4 115 -10 0 -6 28 -10 65 -10 37 0 65 -4 65 -10 0 -5 13 -10 30 -10 49 0 53 -38 47 -400 -7 -367 0 -443 42 -459 38 -14 425 -48 716 -62 425 -20 1151 3 1615 52 52 6 102 12 111 15 14 4 17 49 23 407 4 221 10 417 13 435 l5 32 69 0 c39 0 69 4 69 10 0 6 26 10 59 10 33 0 61 4 63 8 2 5 24 12 51 15 l47 7 0 -374 0 -374 58 -11 c31 -6 86 -18 122 -26 83 -19 116 -19 187 1 32 8 78 19 103 24 148 28 677 195 700 221 10 11 110 59 123 59 8 0 24 9 37 20 13 11 26 20 30 20 8 0 46 30 78 62 19 20 22 33 22 100 0 42 5 80 10 83 7 4 10 387 10 1116 0 733 -3 1109 -10 1109 -5 0 -10 7 -10 16 0 24 -19 38 -105 79 -44 20 -81 41 -83 46 -2 5 -17 9 -33 9 -16 0 -29 5 -29 10 0 6 -7 10 -16 10 -8 0 -22 7 -31 15 -13 13 -14 33 -7 128 5 62 8 121 7 132 0 11 -4 61 -7 110 -6 86 -51 266 -68 273 -4 2 -8 12 -8 23 0 10 -4 19 -10 19 -5 0 -10 7 -10 15 0 8 -31 45 -70 81 -38 37 -70 73 -70 80 0 8 -10 14 -22 14 -48 0 -202 120 -286 225 -21 25 -7 65 23 65 14 0 25 5 25 10 0 6 18 10 40 10 22 0 40 5 40 10 0 6 15 10 34 10 19 0 37 4 41 9 3 5 34 13 70 16 36 4 68 11 71 16 3 5 14 9 24 9 11 0 35 9 55 20 20 11 47 20 60 20 14 0 25 5 25 10 0 6 7 10 15 10 8 0 15 5 15 10 0 6 7 10 15 10 8 0 15 5 15 10 0 6 7 10 15 10 8 0 15 4 15 9 0 5 9 11 20 14 11 3 20 12 20 21 0 9 5 16 10 16 6 0 10 9 10 20 0 11 5 20 10 20 6 0 10 14 10 30 0 17 5 30 10 30 6 0 10 20 10 45 0 25 4 45 9 45 5 0 9 23 9 50 1 28 -3 50 -9 50 -5 0 -9 7 -9 15 0 8 -4 15 -10 15 -5 0 -10 11 -10 25 0 14 -4 25 -10 25 -5 0 -10 9 -10 20 0 12 -10 31 -22 44 -13 12 -39 45 -57 73 -24 34 -44 53 -62 57 -15 3 -33 11 -40 18 -21 21 -202 76 -341 104 -68 13 -131 29 -140 34 -10 6 -36 10 -57 10 -22 0 -43 5 -46 10 -3 6 -28 10 -55 10 -27 0 -52 5 -55 10 -3 6 -17 10 -29 10 -41 0 -51 25 -48 119 6 182 67 791 107 1076 8 55 15 126 15 157 0 31 5 60 10 63 6 3 10 37 10 76 0 39 4 69 10 69 6 0 10 27 10 60 0 33 4 60 8 60 4 0 16 48 26 108 51 304 172 868 221 1032 7 25 25 90 40 145 15 55 30 106 32 113 3 6 1 12 -3 11 -5 0 -116 -45 -247 -99z"/>
 <path d="M1660 8298 c-117 -33 -184 -187 -131 -303 49 -109 179 -145 298 -83 132 67 151 233 39 336 -62 57 -127 73 -206 50z"/>
 </g>

</svg>