<!DOCTYPE svg PUBLIC "-//W3C//DTD SVG 20010904//EN" "http://www.w3.org/TR/2001/REC-SVG-20010904/DTD/svg10.dtd">
<svg version="1.0" xmlns="http://www.w3.org/2000/svg" width="1239px" height="1600px" viewBox="0 0 12390 16000" preserveAspectRatio="xMidYMid meet">
<g id="layer101" fill="#385369" stroke="none">
 <path d="M0 8000 l0 -8000 6195 0 6195 0 0 8000 0 8000 -6195 0 -6195 0 0 -8000z"/>
 </g>
<g id="layer102" fill="#2f5b83" stroke="none">
 <path d="M0 8000 l0 -8000 6195 0 6195 0 0 8000 0 8000 -6195 0 -6195 0 0 -8000z m6760 7980 c304 -12 470 -20 525 -25 22 -3 87 -7 145 -10 133 -7 412 -32 510 -46 90 -12 216 -27 285 -34 28 -3 77 -10 110 -15 33 -5 112 -17 175 -26 122 -18 227 -35 325 -54 33 -6 89 -15 125 -20 36 -6 97 -16 135 -25 39 -8 126 -26 195 -41 69 -15 154 -33 190 -40 36 -8 88 -20 115 -29 28 -8 77 -21 110 -29 106 -25 368 -94 435 -115 229 -71 634 -203 645 -211 6 -4 24 -10 40 -14 17 -4 44 -13 60 -21 17 -7 95 -39 175 -70 261 -104 246 -96 269 -140 12 -22 29 -53 39 -70 9 -16 19 -41 20 -55 2 -14 8 -26 13 -28 5 -2 4 -12 -1 -23 -6 -10 -15 -103 -20 -206 -10 -191 -35 -1180 -33 -1285 0 -32 -3 -58 -8 -58 -5 0 -9 -6 -9 -14 0 -7 -6 -24 -12 -37 -17 -32 -166 -179 -182 -179 -6 0 -19 -9 -29 -20 -9 -11 -23 -20 -30 -20 -8 0 -28 -13 -45 -30 -18 -16 -41 -30 -52 -30 -11 0 -20 -4 -20 -10 0 -5 -9 -10 -20 -10 -11 0 -20 -4 -20 -10 0 -5 -7 -10 -15 -10 -8 0 -15 -4 -15 -10 0 -5 -9 -10 -20 -10 -11 0 -20 -4 -20 -10 0 -5 -7 -10 -15 -10 -9 0 -27 -11 -41 -25 -14 -14 -29 -25 -34 -25 -6 0 -10 -9 -10 -20 0 -11 5 -20 10 -20 6 0 10 -22 10 -50 0 -27 5 -50 10 -50 6 0 10 -33 10 -79 0 -44 5 -83 10 -86 6 -4 10 -68 10 -161 0 -96 -4 -154 -10 -154 -6 0 -10 -33 -10 -80 0 -47 -4 -80 -10 -80 -5 0 -10 -22 -10 -49 0 -28 -4 -53 -10 -56 -5 -3 -10 -19 -10 -35 0 -16 -4 -32 -10 -35 -5 -3 -10 -17 -10 -31 0 -14 -7 -32 -15 -40 -8 -9 -15 -25 -15 -36 0 -30 -50 -139 -77 -167 -13 -13 -23 -28 -23 -32 0 -5 -13 -22 -30 -37 -16 -16 -30 -39 -30 -51 0 -13 -6 -21 -18 -21 -10 0 -24 -9 -32 -20 -8 -11 -21 -20 -29 -20 -14 0 -51 -37 -51 -52 0 -4 -7 -8 -15 -8 -8 0 -36 -13 -62 -30 -26 -16 -53 -30 -60 -30 -7 0 -13 -4 -13 -10 0 -5 -17 -18 -38 -29 -45 -23 -189 -129 -222 -162 -31 -32 -140 -200 -140 -216 0 -7 12 -38 26 -70 58 -130 77 -221 72 -348 l-3 -90 -120 -7 c-148 -9 -191 -12 -380 -32 -82 -8 -170 -17 -195 -20 -25 -2 -67 -9 -95 -16 -27 -6 -75 -16 -105 -21 -30 -6 -75 -14 -100 -19 -25 -5 -65 -13 -90 -18 -25 -5 -64 -14 -88 -20 -23 -7 -61 -17 -85 -23 -62 -15 -222 -66 -387 -121 -80 -27 -179 -60 -220 -74 -41 -13 -84 -29 -95 -34 -11 -5 -76 -30 -145 -55 -69 -25 -138 -52 -155 -60 -16 -7 -50 -21 -75 -30 -239 -89 -790 -350 -1185 -561 -77 -41 -187 -97 -245 -125 -154 -74 -728 -362 -925 -464 -476 -246 -859 -435 -1080 -531 -16 -7 -59 -26 -95 -42 -36 -16 -90 -40 -120 -52 -30 -12 -69 -29 -87 -36 -17 -8 -44 -17 -60 -20 -28 -5 -28 -5 -41 62 -7 37 -17 73 -21 78 -5 6 -11 25 -14 41 -16 84 -35 155 -95 345 -20 63 -37 123 -39 133 -2 10 -16 52 -32 95 -15 42 -47 129 -70 192 -23 63 -55 142 -72 176 -16 33 -29 66 -29 72 0 7 -4 12 -10 12 -5 0 -10 9 -10 20 0 11 -4 20 -10 20 -5 0 -10 7 -10 15 0 8 -4 23 -9 33 -5 9 -35 71 -67 137 -32 66 -62 122 -66 123 -5 2 -8 10 -8 18 0 17 -45 92 -71 116 -10 10 -55 31 -101 47 -46 16 -96 36 -113 45 -16 9 -38 16 -47 16 -10 0 -18 5 -18 10 0 6 -6 10 -14 10 -21 0 -122 49 -136 65 -7 8 -18 15 -24 15 -13 0 -96 103 -96 119 0 5 -8 16 -18 23 -25 19 -78 136 -105 231 -19 71 -22 104 -21 252 2 170 2 170 33 230 17 33 40 74 51 90 33 50 34 56 11 103 -25 51 -131 190 -146 191 -5 1 -23 14 -40 30 -16 16 -61 49 -100 75 -38 25 -74 49 -80 54 -5 4 -36 18 -67 31 -34 14 -60 31 -63 42 -4 12 -16 19 -30 19 -16 0 -31 10 -42 28 -23 34 -51 62 -85 85 -16 9 -28 23 -28 31 0 7 -9 21 -20 31 -11 10 -20 23 -20 30 0 6 -8 20 -17 31 -38 41 -89 159 -84 192 1 6 -2 12 -7 12 -10 0 -32 67 -32 99 0 11 -4 21 -10 21 -5 0 -10 11 -10 23 0 13 -3 27 -6 30 -10 10 -13 59 -20 317 -6 246 4 384 33 447 20 43 14 77 -14 81 -13 2 -23 8 -23 13 0 5 -9 9 -20 9 -11 0 -20 5 -20 10 0 6 -9 10 -20 10 -11 0 -20 5 -20 10 0 6 -7 10 -16 10 -8 0 -22 7 -31 15 -8 9 -28 19 -44 22 -16 3 -29 9 -29 14 0 5 -9 9 -20 9 -11 0 -20 5 -20 10 0 6 -9 10 -20 10 -11 0 -20 4 -20 10 0 5 -21 23 -46 41 -56 38 -176 142 -199 171 -15 18 -59 112 -57 119 1 4 -3 46 -9 94 -5 47 -7 91 -3 96 16 26 -9 1224 -26 1245 -8 8 -8 14 0 19 8 5 9 24 5 57 -8 54 3 85 42 125 11 12 24 41 28 63 6 37 10 41 30 38 17 -4 26 1 33 16 10 22 100 61 412 179 36 14 117 42 180 62 63 21 174 57 245 81 72 23 146 46 165 50 19 3 41 11 50 15 8 5 58 21 110 34 52 14 156 42 230 61 203 54 436 110 515 123 39 7 81 17 95 22 14 5 66 16 115 24 50 8 135 23 190 35 55 11 132 24 170 29 39 6 131 19 205 31 74 11 187 27 250 35 63 7 122 16 130 19 8 3 50 8 94 11 43 3 81 7 85 9 3 3 49 7 101 11 52 4 97 8 100 10 3 2 47 6 99 9 52 4 97 8 100 11 4 2 42 4 86 6 44 1 112 5 150 10 74 8 175 14 440 25 88 4 161 8 163 9 8 7 905 3 1122 -5z"/>
 <path d="M3765 14771 c-72 -18 -81 -21 -150 -52 -173 -79 -315 -328 -317 -558 0 -81 4 -111 26 -175 72 -207 207 -332 437 -405 48 -15 250 -13 325 3 249 53 424 295 424 586 -1 98 -12 144 -61 247 -97 203 -246 324 -445 362 -80 15 -154 12 -239 -8z"/>
 <path d="M2623 12710 c-87 -40 -146 -103 -196 -208 -39 -84 -40 -90 -40 -192 0 -96 2 -111 30 -171 41 -87 114 -160 190 -190 89 -34 214 -36 309 -4 118 38 224 130 267 230 24 54 38 150 30 199 -15 96 -107 250 -176 293 -106 67 -127 73 -243 72 -98 0 -115 -3 -171 -29z"/>
 <path d="M3516 11020 c-170 -66 -231 -317 -112 -456 53 -63 120 -87 221 -82 135 7 218 62 272 178 31 67 28 120 -10 202 -68 150 -223 216 -371 158z"/>
 </g>
<g id="layer103" fill="#698195" stroke="none">
 <path d="M0 11792 l0 -4209 113 -100 c217 -195 435 -353 595 -429 51 -25 160 -68 244 -96 141 -47 163 -51 322 -65 128 -11 251 -13 486 -9 404 7 462 15 865 111 39 10 90 21 115 25 25 5 65 15 90 23 25 8 106 34 180 57 363 113 819 290 1255 485 142 63 869 423 980 485 28 16 251 128 496 250 244 121 480 239 524 261 861 438 1060 533 1405 670 451 178 909 329 1180 388 283 62 391 81 545 95 94 9 211 21 260 27 50 5 281 13 514 18 642 13 765 -3 1013 -131 325 -166 595 -415 828 -763 109 -163 356 -602 345 -613 -2 -3 -37 26 -78 64 -90 85 -325 270 -432 340 -122 79 -234 131 -400 187 -100 33 -177 52 -230 57 -44 5 -138 13 -210 20 -262 25 -782 -2 -992 -50 -48 -11 -140 -32 -203 -46 -63 -14 -142 -32 -175 -39 -182 -41 -742 -236 -1130 -395 -339 -138 -603 -260 -1035 -478 -201 -102 -594 -301 -875 -442 -280 -141 -598 -303 -705 -360 -460 -245 -943 -469 -1350 -625 -223 -85 -734 -256 -865 -289 -538 -134 -938 -175 -1700 -175 -451 0 -522 11 -745 116 -201 94 -395 237 -577 424 -182 187 -370 467 -572 852 -40 75 -74 137 -77 137 -2 0 -4 -1703 -4 -3785 l0 -3784 6195 0 6195 0 0 7999 0 8000 -2912 -1 c-1602 -1 -2899 -4 -2882 -9 18 -4 133 -10 255 -14 221 -7 341 -13 429 -21 25 -3 92 -7 150 -10 133 -7 412 -32 510 -46 90 -12 216 -27 285 -34 28 -3 77 -10 110 -15 33 -5 112 -17 175 -26 122 -18 227 -35 325 -54 33 -6 89 -15 125 -20 36 -6 97 -16 135 -25 39 -8 126 -26 195 -41 69 -15 154 -33 190 -40 36 -8 88 -20 115 -29 28 -8 77 -21 110 -29 106 -25 368 -94 435 -115 229 -71 634 -203 645 -211 6 -4 24 -10 40 -14 17 -4 44 -13 60 -21 17 -7 95 -39 175 -70 261 -104 246 -96 269 -140 12 -22 29 -53 39 -70 9 -16 19 -41 20 -55 2 -14 8 -26 13 -28 5 -2 4 -12 -1 -23 -6 -10 -15 -103 -20 -206 -10 -191 -35 -1180 -33 -1285 0 -32 -3 -58 -8 -58 -5 0 -9 -6 -9 -14 0 -7 -6 -24 -13 -37 -16 -32 -165 -179 -181 -179 -6 0 -19 -9 -29 -20 -9 -11 -23 -20 -30 -20 -8 0 -28 -13 -45 -30 -18 -16 -41 -30 -52 -30 -11 0 -20 -4 -20 -10 0 -5 -9 -10 -20 -10 -11 0 -20 -4 -20 -10 0 -5 -7 -10 -15 -10 -8 0 -15 -4 -15 -10 0 -5 -9 -10 -20 -10 -11 0 -20 -4 -20 -10 0 -5 -7 -10 -15 -10 -9 0 -27 -11 -41 -25 -14 -14 -29 -25 -34 -25 -6 0 -10 -9 -10 -20 0 -11 5 -20 10 -20 6 0 10 -22 10 -50 0 -27 5 -50 10 -50 6 0 10 -33 10 -79 0 -44 5 -83 10 -86 6 -4 10 -68 10 -161 0 -96 -4 -154 -10 -154 -6 0 -10 -33 -10 -80 0 -47 -4 -80 -10 -80 -5 0 -10 -22 -10 -49 0 -28 -5 -53 -10 -56 -5 -3 -10 -19 -10 -35 0 -16 -4 -32 -10 -35 -5 -3 -10 -17 -10 -31 0 -14 -7 -32 -15 -40 -8 -9 -15 -25 -15 -36 0 -30 -50 -139 -77 -167 -13 -13 -23 -28 -23 -32 0 -5 -13 -22 -30 -37 -16 -16 -30 -39 -30 -51 0 -13 -6 -21 -18 -21 -10 0 -24 -9 -32 -20 -8 -11 -21 -20 -29 -20 -14 0 -51 -37 -51 -52 0 -4 -7 -8 -15 -8 -8 0 -36 -14 -62 -30 -26 -16 -53 -30 -60 -30 -7 0 -13 -4 -13 -10 0 -5 -17 -18 -38 -29 -45 -23 -189 -129 -222 -162 -31 -32 -140 -200 -140 -216 0 -7 12 -38 26 -70 58 -130 77 -221 72 -348 l-3 -90 -120 -7 c-148 -9 -191 -12 -380 -32 -82 -8 -170 -17 -195 -20 -25 -2 -67 -9 -95 -16 -27 -6 -75 -16 -105 -21 -30 -6 -75 -14 -100 -19 -25 -5 -65 -13 -90 -18 -25 -5 -65 -14 -90 -21 -25 -7 -63 -17 -85 -22 -59 -15 -221 -66 -385 -121 -80 -27 -179 -60 -220 -74 -41 -13 -84 -29 -95 -34 -11 -5 -76 -30 -145 -55 -69 -25 -138 -52 -155 -60 -16 -7 -50 -21 -75 -30 -239 -89 -790 -350 -1185 -561 -77 -41 -187 -97 -245 -125 -154 -74 -728 -362 -925 -464 -476 -246 -859 -435 -1080 -531 -16 -7 -59 -26 -95 -42 -36 -16 -90 -40 -120 -52 -30 -12 -69 -29 -87 -36 -17 -8 -44 -17 -60 -20 -28 -5 -28 -5 -41 62 -7 37 -17 73 -21 78 -5 6 -11 25 -14 41 -16 84 -35 155 -95 345 -20 63 -37 123 -39 133 -2 10 -16 52 -32 95 -15 42 -47 129 -70 192 -23 63 -55 142 -72 176 -16 33 -29 66 -29 72 0 7 -4 12 -10 12 -5 0 -10 9 -10 20 0 11 -4 20 -10 20 -5 0 -10 7 -10 15 0 8 -4 23 -9 33 -5 9 -35 71 -67 137 -32 66 -62 122 -66 123 -5 2 -8 10 -8 18 0 17 -45 92 -71 116 -10 10 -55 31 -101 47 -46 16 -96 36 -113 45 -16 9 -38 16 -47 16 -10 0 -18 5 -18 10 0 6 -6 10 -14 10 -21 0 -122 49 -136 65 -7 8 -18 15 -24 15 -13 0 -96 103 -96 119 0 5 -8 16 -18 23 -25 19 -78 136 -105 231 -19 71 -22 104 -21 252 2 170 2 170 33 230 17 33 40 74 51 90 33 50 34 56 11 103 -25 51 -131 190 -146 191 -5 1 -23 14 -40 30 -16 16 -61 49 -100 75 -38 25 -74 49 -80 54 -5 4 -36 18 -67 31 -34 14 -60 31 -63 42 -4 12 -16 19 -30 19 -16 0 -31 10 -42 28 -23 34 -51 62 -85 85 -16 9 -28 23 -28 31 0 7 -9 21 -20 31 -11 10 -20 23 -20 30 0 6 -8 20 -17 31 -38 41 -89 159 -84 192 1 6 -2 12 -7 12 -10 0 -32 67 -32 99 0 11 -4 21 -10 21 -5 0 -10 10 -10 23 0 13 -3 27 -6 30 -10 10 -13 59 -20 317 -6 246 4 384 33 447 20 43 14 77 -14 81 -13 2 -23 8 -23 13 0 5 -9 9 -20 9 -11 0 -20 5 -20 10 0 6 -9 10 -20 10 -11 0 -20 5 -20 10 0 6 -7 10 -16 10 -8 0 -22 7 -31 15 -8 9 -28 19 -44 22 -16 3 -29 9 -29 14 0 5 -9 9 -20 9 -11 0 -20 5 -20 10 0 6 -9 10 -20 10 -11 0 -20 4 -20 10 0 5 -21 23 -46 41 -56 38 -176 142 -199 171 -15 18 -59 112 -57 119 1 4 -3 46 -9 94 -5 47 -7 91 -3 96 16 26 -9 1224 -26 1245 -8 8 -8 14 0 19 8 5 9 24 5 57 -8 54 3 85 42 125 11 12 24 41 28 63 6 37 10 41 30 38 17 -4 26 1 33 16 10 22 100 61 412 179 36 14 117 42 180 62 63 21 174 57 245 81 72 23 146 46 165 50 19 3 41 11 50 15 8 5 58 21 110 34 52 14 156 42 230 61 203 54 436 110 515 123 39 7 81 17 95 22 14 5 66 16 115 24 50 8 135 23 190 35 55 11 132 24 170 29 39 6 131 19 205 31 74 11 187 27 250 35 63 7 122 16 130 19 8 3 50 8 94 11 43 3 81 7 85 9 3 2 47 7 96 11 50 3 97 8 105 10 8 2 53 7 99 10 46 3 93 7 105 10 11 2 74 7 140 10 65 3 121 7 125 9 3 2 78 7 166 11 88 3 183 8 210 11 28 2 106 5 175 5 69 1 143 5 165 9 22 4 -1271 8 -2872 9 l-2913 1 0 -4208z"/>
 <path d="M6310 15990 c0 -5 20 -10 45 -10 25 0 45 5 45 10 0 6 -20 10 -45 10 -25 0 -45 -4 -45 -10z"/>
 <path d="M3765 14771 c-72 -18 -81 -21 -150 -52 -173 -79 -315 -328 -317 -558 0 -81 4 -111 26 -175 72 -207 207 -332 437 -405 48 -15 250 -13 325 3 249 53 424 295 424 586 -1 98 -12 144 -61 247 -97 203 -246 324 -445 362 -80 15 -154 12 -239 -8z"/>
 <path d="M2623 12710 c-87 -40 -146 -103 -196 -208 -39 -84 -40 -90 -40 -192 0 -96 2 -111 30 -171 41 -87 114 -160 190 -190 89 -34 214 -36 309 -4 118 38 224 130 267 230 24 54 38 150 30 199 -15 96 -107 250 -176 293 -106 67 -127 73 -243 72 -98 0 -115 -3 -171 -29z"/>
 <path d="M3516 11020 c-170 -66 -231 -317 -112 -456 53 -63 120 -87 221 -82 135 7 218 62 272 178 31 67 28 120 -10 202 -68 150 -223 216 -371 158z"/>
 </g>
<g id="layer104" fill="#ffffff" stroke="none">
 <path d="M0 11792 l0 -4209 113 -100 c217 -195 435 -353 595 -429 51 -25 160 -68 244 -96 141 -47 163 -51 322 -65 128 -11 251 -13 486 -9 404 7 462 15 865 111 39 10 90 21 115 25 25 5 65 15 90 23 25 8 106 34 180 57 363 113 819 290 1255 485 142 63 869 423 980 485 28 16 251 128 496 250 244 121 480 239 524 261 861 438 1060 533 1405 670 451 178 909 329 1180 388 283 62 391 81 545 95 94 9 211 21 260 27 50 5 281 13 514 18 642 13 765 -3 1013 -131 325 -166 595 -415 828 -763 109 -163 356 -602 345 -613 -2 -3 -37 26 -78 64 -90 85 -325 270 -432 340 -122 79 -234 131 -400 187 -100 33 -177 52 -230 57 -44 5 -138 13 -210 20 -262 25 -782 -2 -992 -50 -48 -11 -140 -32 -203 -46 -63 -14 -142 -32 -175 -39 -102 -23 -480 -147 -770 -253 l-130 -47 -18 -55 c-71 -214 -217 -857 -283 -1252 -10 -60 -22 -108 -26 -108 -4 0 -8 -27 -8 -60 0 -33 -4 -60 -10 -60 -6 0 -10 -30 -10 -69 0 -39 -5 -73 -10 -76 -5 -3 -10 -32 -10 -63 0 -31 -7 -102 -15 -157 -40 -285 -101 -894 -107 -1076 -3 -94 7 -119 48 -119 12 0 26 -4 29 -10 3 -5 28 -10 55 -10 27 0 52 -4 55 -10 3 -5 24 -10 46 -10 21 0 47 -4 57 -10 9 -5 72 -21 140 -34 139 -28 320 -83 341 -104 7 -7 25 -15 40 -18 18 -4 38 -23 62 -57 18 -28 44 -61 57 -73 12 -13 22 -32 22 -44 0 -11 5 -20 10 -20 6 0 10 -11 10 -25 0 -14 5 -25 10 -25 6 0 10 -7 10 -15 0 -8 4 -15 9 -15 6 0 10 -22 9 -50 0 -27 -4 -50 -9 -50 -5 0 -9 -20 -9 -45 0 -25 -4 -45 -10 -45 -5 0 -10 -13 -10 -30 0 -16 -4 -30 -10 -30 -5 0 -10 -9 -10 -20 0 -11 -4 -20 -9 -20 -5 0 -11 -9 -14 -20 -3 -11 -12 -20 -21 -20 -9 0 -16 -4 -16 -10 0 -5 -7 -10 -15 -10 -8 0 -15 -4 -15 -10 0 -5 -7 -10 -15 -10 -8 0 -15 -4 -15 -10 0 -5 -7 -10 -15 -10 -8 0 -15 -4 -15 -10 0 -5 -11 -10 -25 -10 -13 0 -40 -9 -60 -20 -20 -11 -44 -20 -55 -20 -10 0 -21 -4 -24 -9 -3 -5 -35 -12 -71 -16 -36 -3 -67 -11 -70 -16 -4 -5 -22 -9 -41 -9 -19 0 -34 -4 -34 -10 0 -5 -18 -10 -40 -10 -22 0 -40 -4 -40 -10 0 -5 -11 -10 -25 -10 -30 0 -44 -40 -23 -65 84 -105 238 -225 286 -225 12 0 22 -6 22 -14 0 -7 32 -43 70 -80 39 -36 70 -73 70 -81 0 -8 5 -15 10 -15 6 0 10 -9 10 -19 0 -11 4 -21 8 -23 17 -7 62 -187 68 -273 3 -49 7 -99 7 -110 1 -11 -2 -70 -7 -132 -7 -95 -6 -115 7 -128 9 -8 23 -15 31 -15 9 0 16 -4 16 -10 0 -5 13 -10 29 -10 16 0 31 -4 33 -9 2 -5 39 -26 83 -46 86 -41 105 -55 105 -79 0 -9 5 -16 10 -16 7 0 10 -376 10 -1109 0 -729 -3 -1112 -10 -1116 -5 -3 -10 -41 -10 -83 0 -67 -3 -80 -22 -100 -32 -32 -70 -62 -78 -62 -4 0 -17 -9 -30 -20 -13 -11 -29 -20 -37 -20 -13 0 -113 -48 -123 -59 -23 -26 -552 -193 -700 -221 -25 -5 -71 -16 -103 -24 -71 -20 -104 -20 -187 -1 -36 8 -91 20 -122 26 l-58 11 0 374 0 374 -47 -7 c-27 -3 -49 -10 -51 -15 -2 -4 -30 -8 -63 -8 -33 0 -59 -4 -59 -10 0 -6 -30 -10 -69 -10 l-69 0 -5 -33 c-3 -17 -9 -213 -13 -434 -6 -358 -9 -403 -23 -407 -16 -5 -150 -20 -271 -31 -90 -8 -594 -35 -652 -35 -27 0 -48 -4 -48 -10 0 -7 980 -10 2920 -10 l2920 0 0 8000 0 8000 -2912 -1 c-1602 -1 -2879 -5 -2838 -9 41 -4 163 -11 270 -14 473 -17 1039 -69 1550 -142 333 -47 907 -157 1145 -219 340 -88 475 -125 610 -165 184 -56 698 -235 835 -290 96 -39 194 -79 216 -87 27 -11 48 -28 58 -47 10 -17 27 -49 39 -71 12 -22 24 -51 25 -65 2 -14 8 -26 13 -28 5 -2 5 -11 -1 -22 -5 -10 -14 -103 -20 -207 -10 -187 -35 -1175 -33 -1285 0 -32 -3 -58 -8 -58 -5 0 -9 -6 -9 -14 0 -7 -6 -24 -13 -37 -16 -32 -165 -179 -181 -179 -6 0 -19 -9 -29 -20 -9 -11 -23 -20 -30 -20 -8 0 -28 -13 -45 -30 -18 -16 -41 -30 -52 -30 -11 0 -20 -4 -20 -10 0 -5 -9 -10 -20 -10 -11 0 -20 -4 -20 -10 0 -5 -7 -10 -15 -10 -8 0 -15 -4 -15 -10 0 -5 -9 -10 -20 -10 -11 0 -20 -4 -20 -10 0 -5 -7 -10 -15 -10 -9 0 -27 -11 -41 -25 -14 -14 -29 -25 -34 -25 -6 0 -10 -9 -10 -20 0 -11 5 -20 10 -20 6 0 10 -22 10 -50 0 -27 5 -50 10 -50 6 0 10 -33 10 -79 0 -44 5 -83 10 -86 6 -4 10 -68 10 -161 0 -96 -4 -154 -10 -154 -6 0 -10 -33 -10 -80 0 -47 -4 -80 -10 -80 -5 0 -10 -22 -10 -49 0 -28 -5 -53 -10 -56 -5 -3 -10 -24 -10 -46 0 -21 -4 -39 -10 -39 -5 0 -10 -11 -10 -25 0 -14 -4 -25 -10 -25 -5 0 -10 -10 -10 -23 0 -13 -14 -51 -30 -85 -17 -34 -30 -66 -30 -70 0 -4 -12 -18 -25 -31 -14 -13 -25 -29 -25 -37 0 -8 -4 -14 -10 -14 -5 0 -10 -6 -10 -13 0 -7 -9 -19 -20 -27 -11 -8 -20 -22 -20 -32 0 -11 -7 -18 -18 -18 -10 0 -24 -9 -32 -20 -8 -11 -20 -20 -28 -20 -18 0 -42 -25 -42 -44 0 -9 -9 -16 -20 -16 -18 0 -96 -43 -110 -61 -3 -4 -25 -16 -50 -29 -57 -29 -162 -103 -219 -155 -44 -40 -161 -208 -161 -232 0 -6 16 -48 35 -92 47 -107 66 -206 63 -322 l-3 -94 -120 -7 c-286 -17 -620 -57 -810 -98 -104 -23 -221 -47 -260 -55 -222 -44 -1100 -357 -1416 -504 -35 -16 -134 -62 -219 -101 -130 -60 -344 -167 -885 -444 -38 -20 -250 -126 -470 -235 -220 -110 -488 -245 -595 -300 -246 -128 -741 -373 -885 -439 -240 -109 -489 -212 -495 -205 -3 5 -12 37 -19 73 -7 36 -16 70 -21 75 -4 6 -10 24 -13 40 -16 82 -34 149 -93 340 -19 61 -34 113 -34 117 -1 11 -28 89 -40 113 -5 11 -18 47 -28 80 -31 96 -81 225 -113 291 -16 33 -29 66 -29 72 0 7 -4 12 -10 12 -5 0 -10 9 -10 20 0 11 -4 20 -10 20 -5 0 -10 6 -10 13 0 18 -24 67 -32 67 -5 0 -8 8 -8 17 0 19 -90 206 -102 211 -4 2 -8 12 -8 23 0 10 -4 19 -10 19 -5 0 -10 7 -10 15 0 8 -4 15 -10 15 -5 0 -10 7 -10 15 0 8 -4 15 -10 15 -5 0 -10 5 -10 11 0 21 -29 39 -112 67 -47 17 -99 37 -116 46 -17 9 -38 16 -47 16 -8 0 -15 5 -15 10 0 6 -6 10 -14 10 -21 0 -122 49 -136 65 -7 8 -18 15 -24 15 -7 0 -37 33 -67 73 -29 39 -56 74 -59 77 -30 27 -110 258 -110 316 0 12 -4 24 -8 26 -4 2 -4 72 1 157 8 162 16 187 87 296 33 50 33 54 14 98 -58 129 -244 294 -434 384 -41 19 -79 42 -83 49 -4 8 -14 14 -22 14 -8 0 -23 12 -32 28 -23 34 -51 62 -85 85 -16 9 -28 23 -28 31 0 7 -9 21 -20 31 -11 10 -20 23 -20 30 0 6 -8 20 -17 31 -28 30 -62 101 -94 194 -16 47 -32 92 -36 100 -3 8 -8 26 -10 40 -2 14 -6 32 -9 40 -11 26 -14 79 -20 327 -5 202 -3 259 11 345 9 57 18 110 19 118 1 9 5 21 10 28 10 17 -1 32 -25 32 -10 0 -19 5 -19 10 0 6 -9 10 -20 10 -11 0 -20 5 -20 10 0 6 -9 10 -20 10 -11 0 -20 5 -20 10 0 6 -9 10 -20 10 -11 0 -20 5 -20 10 0 6 -9 10 -20 10 -11 0 -20 5 -20 10 0 6 -9 10 -20 10 -11 0 -20 5 -20 10 0 6 -9 10 -20 10 -11 0 -20 5 -20 10 0 6 -8 10 -18 10 -9 0 -23 9 -30 20 -7 11 -17 20 -23 20 -14 0 -188 148 -214 182 -15 18 -59 112 -57 119 1 4 -3 46 -9 94 -5 47 -7 91 -3 96 15 25 -9 1226 -25 1242 -6 6 -6 19 -1 33 5 12 6 39 3 59 -6 39 8 75 44 112 11 12 24 40 28 62 6 34 11 41 30 41 14 0 26 7 29 18 11 31 443 193 936 350 271 87 810 223 1135 287 233 46 591 107 725 125 41 5 163 21 270 34 369 48 851 87 1320 107 151 6 277 13 279 15 2 2 -1306 4 -2907 4 l-2912 0 0 -4208z m2078 -1727 c90 -38 159 -150 150 -246 -13 -135 -167 -232 -316 -199 -143 31 -204 197 -125 342 29 53 68 89 118 106 45 16 131 14 173 -3z m726 -1166 c23 -6 55 -28 82 -56 128 -131 70 -313 -112 -354 -61 -14 -129 -1 -176 32 -89 64 -97 224 -16 319 51 59 138 83 222 59z m-1020 -600 c51 -14 121 -80 142 -135 50 -131 -44 -267 -195 -282 -167 -16 -273 151 -195 306 49 98 143 140 248 111z"/>
 <path d="M6310 15990 c0 -5 20 -10 45 -10 25 0 45 5 45 10 0 6 -20 10 -45 10 -25 0 -45 -4 -45 -10z"/>
 <path d="M3740 14764 c-106 -28 -193 -79 -263 -154 -157 -169 -218 -434 -147 -640 57 -167 198 -306 371 -367 101 -35 277 -43 382 -18 253 60 410 267 424 555 5 97 3 111 -25 192 -41 121 -84 190 -177 283 -85 86 -146 122 -253 150 -75 19 -238 19 -312 -1z"/>
 <path d="M2685 12731 c-152 -40 -257 -165 -295 -349 -25 -123 19 -271 108 -359 112 -112 310 -133 481 -52 74 34 159 116 195 186 35 69 50 169 35 230 -32 133 -122 255 -231 313 -57 31 -71 34 -163 36 -55 2 -113 0 -130 -5z"/>
 <path d="M3516 11020 c-168 -66 -230 -314 -115 -454 67 -80 198 -108 320 -69 80 26 162 109 184 187 20 68 16 105 -19 181 -67 147 -223 212 -370 155z"/>
 <path d="M0 3785 l0 -3785 2940 0 c1651 0 2940 4 2940 9 0 4 -75 11 -167 15 -208 8 -599 44 -634 57 -42 16 -49 92 -42 459 6 362 2 400 -47 400 -17 0 -30 5 -30 10 0 6 -28 10 -65 10 -37 0 -65 4 -65 10 0 6 -45 10 -115 10 l-115 0 0 -365 c0 -201 -1 -365 -2 -365 -2 0 -49 -9 -106 -20 -165 -32 -189 -30 -504 54 -76 20 -403 129 -453 151 -22 10 -53 24 -70 31 -83 35 -205 97 -215 109 -7 8 -19 15 -26 15 -8 0 -35 20 -59 45 l-45 44 0 1201 c0 1193 0 1200 20 1200 11 0 20 5 20 10 0 6 7 10 15 10 19 0 151 66 160 80 3 5 17 10 30 10 13 0 27 4 30 10 3 5 19 10 35 10 l30 0 -7 78 c-13 140 -7 360 11 403 4 9 9 27 11 40 13 89 109 264 168 307 10 8 29 25 42 38 13 13 29 24 35 24 37 0 250 168 250 196 0 8 4 14 8 14 5 0 14 12 21 26 14 31 1 54 -30 54 -11 0 -19 5 -19 10 0 6 -22 10 -50 10 -27 0 -50 5 -50 10 0 6 -18 10 -40 10 -22 0 -40 4 -40 9 0 5 -25 13 -55 16 -30 4 -55 11 -55 16 0 5 -13 9 -30 9 -16 0 -30 5 -30 10 0 6 -13 10 -30 10 -16 0 -30 5 -30 10 0 6 -11 10 -25 10 -14 0 -25 5 -25 10 0 6 -9 10 -20 10 -11 0 -20 5 -20 10 0 6 -6 10 -13 10 -16 0 -87 72 -87 88 0 7 -4 12 -8 12 -5 0 -17 19 -27 43 -26 61 -28 230 -3 272 10 17 18 38 18 48 0 9 5 17 10 17 6 0 10 7 10 15 0 8 5 15 10 15 6 0 10 9 10 20 0 11 5 20 10 20 6 0 10 4 10 10 0 5 15 25 32 43 49 50 188 104 403 157 66 17 128 35 137 40 10 6 38 10 62 10 25 0 48 5 51 10 3 6 22 10 42 10 l35 0 -6 148 c-3 81 -6 156 -6 167 0 42 -31 381 -36 395 -3 8 -8 42 -10 75 -6 89 -13 146 -19 155 -2 4 -73 -15 -157 -42 -441 -142 -885 -217 -1408 -238 -295 -12 -806 -12 -925 -1 -285 28 -636 228 -932 532 -182 187 -370 467 -572 852 -40 75 -74 137 -77 137 -2 0 -4 -1703 -4 -3785z"/>
 </g>

</svg>