<?xml version="1.0" standalone="no"?>
<!DOCTYPE svg PUBLIC "-//W3C//DTD SVG 20010904//EN"
 "http://www.w3.org/TR/2001/REC-SVG-20010904/DTD/svg10.dtd">
<svg version="1.0" xmlns="http://www.w3.org/2000/svg"
 width="2356.000000pt" height="2356.000000pt" viewBox="0 0 2356.000000 2356.000000"
 preserveAspectRatio="xMidYMid meet">
<metadata>
Created by potrace 1.11, written by Peter Selinger 2001-2013
</metadata>
<g transform="translate(0.000000,2356.000000) scale(0.100000,-0.100000)"
fill="#000000" stroke="none">
<path d="M11318 23541 c-1 -5 -130 -13 -285 -17 -156 -4 -283 -10 -283 -14 0
-5 -72 -11 -160 -15 -88 -4 -160 -11 -160 -15 0 -4 -61 -11 -135 -15 -74 -4
-135 -11 -135 -15 0 -5 -13 -11 -30 -15 -26 -6 -30 -11 -30 -40 0 -18 -6 -35
-12 -38 -10 -3 -13 -127 -13 -574 0 -636 4 -598 -70 -610 -19 -3 -35 -9 -35
-13 0 -5 -44 -11 -97 -15 -54 -4 -100 -11 -103 -16 -3 -5 -81 -11 -173 -15
l-167 -7 0 541 c0 535 0 542 -20 542 -11 0 -20 4 -20 9 0 4 -33 12 -72 16 -40
3 -76 12 -80 18 -10 16 -346 17 -356 1 -4 -7 -35 -15 -69 -19 -35 -4 -63 -11
-63 -15 0 -5 -25 -12 -55 -15 -30 -4 -55 -11 -55 -15 0 -4 -25 -11 -55 -15
-30 -3 -55 -10 -55 -14 0 -5 -19 -11 -41 -14 -23 -3 -45 -10 -48 -15 -3 -5
-30 -13 -58 -17 -29 -4 -53 -11 -53 -15 0 -5 -20 -12 -45 -16 -25 -3 -45 -10
-45 -15 0 -4 -20 -11 -45 -15 -25 -3 -45 -10 -45 -15 0 -4 -20 -11 -45 -15
-25 -3 -45 -10 -45 -14 0 -4 -16 -11 -35 -14 -19 -4 -35 -11 -35 -16 0 -6 -11
-10 -24 -10 -28 0 -89 -20 -97 -32 -3 -5 -23 -11 -45 -15 -21 -3 -43 -12 -47
-20 -4 -7 -15 -13 -22 -13 -8 0 -15 -4 -15 -9 0 -5 -18 -11 -40 -15 -22 -3
-40 -10 -40 -15 0 -5 -13 -12 -30 -16 -16 -4 -30 -10 -30 -15 0 -4 -11 -11
-25 -14 -14 -4 -25 -11 -25 -16 0 -5 -17 -12 -37 -16 -23 -4 -48 -19 -62 -36
-14 -15 -33 -28 -43 -28 -9 0 -46 -29 -82 -66 l-66 -65 0 -1765 c0 -1540 2
-1764 15 -1764 8 0 22 -8 32 -19 10 -10 35 -21 56 -25 20 -4 37 -11 37 -16 0
-4 14 -11 30 -15 17 -4 30 -10 30 -15 0 -5 14 -11 30 -15 17 -4 30 -11 30 -16
0 -5 6 -9 14 -9 8 0 21 -6 28 -14 8 -7 33 -17 56 -21 23 -4 42 -10 42 -15 0
-4 20 -11 45 -14 l45 -7 -7 -127 c-3 -70 -10 -128 -15 -130 -11 -5 -10 -230 2
-234 5 -1 11 -47 14 -102 2 -57 9 -101 15 -105 6 -4 12 -31 14 -60 2 -29 8
-56 15 -60 6 -3 14 -26 18 -49 4 -23 10 -42 14 -42 5 0 11 -13 15 -30 4 -16
10 -30 15 -30 5 0 11 -13 15 -30 4 -16 10 -30 15 -30 4 0 11 -12 14 -26 4 -14
18 -36 31 -48 14 -13 25 -27 25 -32 0 -5 9 -17 20 -27 11 -9 20 -24 20 -32 0
-8 6 -15 13 -15 14 0 45 -22 86 -62 16 -15 41 -30 56 -34 14 -4 29 -12 32 -20
2 -7 18 -16 34 -19 16 -4 29 -11 29 -16 0 -5 11 -11 24 -15 14 -3 27 -12 30
-20 3 -8 10 -14 16 -14 7 0 25 -13 42 -30 16 -16 34 -30 39 -30 14 0 119 -111
119 -126 0 -8 5 -14 11 -14 5 0 15 -13 20 -30 6 -16 15 -30 20 -30 5 0 9 -8 9
-19 0 -22 -40 -51 -70 -51 -11 0 -20 -4 -20 -9 0 -5 -34 -12 -75 -16 -41 -4
-75 -11 -75 -15 0 -4 -27 -10 -60 -14 -33 -4 -60 -11 -60 -15 0 -5 -19 -11
-42 -15 -103 -15 -118 -19 -118 -26 0 -5 -20 -12 -45 -16 -25 -3 -45 -10 -45
-15 0 -4 -20 -11 -45 -15 -25 -3 -45 -10 -45 -14 0 -4 -16 -11 -35 -14 -19 -4
-35 -11 -35 -16 0 -4 -13 -11 -30 -15 -16 -4 -30 -10 -30 -15 0 -5 -9 -12 -21
-15 -25 -8 -129 -112 -129 -130 0 -7 -6 -15 -14 -18 -8 -3 -17 -19 -21 -36 -4
-17 -11 -31 -16 -31 -5 0 -9 -6 -9 -14 0 -8 -7 -22 -16 -30 -8 -9 -11 -16 -5
-16 6 0 11 -16 11 -35 0 -19 -4 -35 -10 -35 -6 0 -10 -32 -10 -75 0 -43 4 -75
10 -75 15 0 12 -57 -2 -64 -9 -3 -8 -8 5 -16 9 -6 17 -18 17 -25 0 -8 4 -15 9
-15 4 0 14 -20 21 -45 7 -25 16 -45 20 -45 4 0 11 -11 14 -25 4 -14 10 -25 15
-25 5 0 12 -13 16 -29 3 -16 13 -32 21 -35 8 -3 14 -10 14 -16 0 -6 11 -21 25
-34 14 -13 25 -27 25 -32 0 -16 36 -42 69 -49 17 -4 31 -11 31 -16 0 -5 18
-12 40 -15 22 -4 40 -10 40 -15 0 -4 16 -11 35 -15 19 -3 35 -10 35 -14 0 -4
20 -11 45 -14 25 -4 45 -11 45 -16 0 -5 20 -12 45 -16 25 -3 45 -10 45 -14 0
-4 27 -11 60 -15 33 -4 60 -11 60 -15 0 -4 27 -11 60 -15 33 -4 60 -11 60 -15
0 -4 27 -11 60 -15 33 -4 60 -11 60 -15 0 -4 36 -11 80 -15 44 -4 80 -11 80
-15 0 -4 27 -10 60 -14 l60 -7 0 -184 c0 -108 -4 -185 -10 -187 -5 -2 -12 -82
-15 -183 -3 -99 -10 -182 -15 -185 -5 -3 -12 -70 -15 -150 -4 -87 -10 -147
-17 -151 -6 -4 -13 -60 -16 -140 -2 -74 -8 -135 -13 -137 -5 -2 -9 -17 -9 -32
0 -16 -5 -32 -10 -35 -6 -4 -66 12 -133 34 -260 85 -448 141 -568 166 -263 57
-439 94 -559 119 -106 21 -349 50 -745 86 -49 5 -387 14 -750 21 -598 11 -678
11 -855 -4 -175 -15 -208 -21 -320 -57 -240 -78 -573 -261 -788 -435 -330
-267 -548 -522 -851 -997 -97 -152 -193 -324 -324 -578 l-101 -195 100 94
c125 119 218 196 419 351 326 251 528 361 870 473 231 75 245 79 370 87 66 5
180 14 254 20 90 8 262 11 525 7 526 -6 743 -29 1060 -108 66 -17 160 -37 209
-46 49 -8 114 -24 145 -34 30 -10 68 -19 83 -19 32 0 534 -157 794 -248 501
-176 955 -359 1530 -618 165 -74 1048 -515 1620 -810 442 -227 1119 -564 1135
-564 5 0 98 -47 207 -105 351 -187 1201 -608 1448 -717 467 -206 890 -369
1437 -552 526 -176 536 -179 1113 -300 219 -46 318 -61 525 -81 140 -14 316
-32 390 -40 88 -10 350 -18 754 -26 551 -9 641 -9 825 6 169 13 224 22 306 47
334 101 695 315 997 592 271 248 526 578 772 1000 91 156 326 589 326 601 0 3
-53 -43 -117 -104 -145 -135 -474 -395 -643 -507 -125 -82 -288 -169 -410
-218 -36 -15 -150 -54 -255 -87 -171 -55 -203 -62 -315 -70 -69 -4 -163 -13
-210 -19 -47 -5 -261 -10 -477 -10 -542 0 -826 25 -1130 99 -87 21 -192 44
-233 51 -41 7 -92 19 -113 26 -20 7 -65 18 -100 24 -120 21 -666 198 -1112
360 -236 86 -245 90 -245 111 0 10 -4 19 -10 19 -5 0 -12 23 -16 50 -4 28 -10
50 -15 50 -4 0 -13 34 -20 75 -6 41 -15 75 -19 75 -5 0 -11 27 -15 60 -4 33
-11 60 -16 60 -4 0 -11 23 -15 50 -4 28 -10 50 -14 50 -5 0 -11 27 -15 60 -4
33 -11 60 -15 60 -4 0 -11 27 -15 60 -4 33 -11 60 -15 60 -5 0 -12 29 -15 65
-4 36 -11 65 -15 65 -5 0 -11 27 -15 60 -4 33 -10 60 -15 60 -4 0 -11 29 -15
65 -3 36 -10 65 -15 65 -4 0 -11 34 -15 75 -4 41 -10 75 -15 75 -4 0 -11 34
-15 75 -4 41 -10 75 -15 75 -4 0 -11 34 -15 75 -4 41 -10 75 -15 75 -4 0 -11
36 -14 80 -4 44 -11 80 -16 80 -4 0 -11 38 -15 85 -4 47 -10 85 -15 85 -4 0
-11 38 -15 85 -4 47 -10 85 -15 85 -4 0 -11 40 -15 90 -4 50 -11 90 -15 90 -4
0 -11 47 -15 105 -4 58 -10 105 -15 105 -4 0 -13 74 -21 165 -7 91 -16 165
-20 165 -4 0 -11 50 -14 110 -4 61 -11 110 -15 110 -5 0 -11 56 -15 125 -4 69
-11 125 -15 125 -4 0 -11 60 -15 133 -4 72 -11 134 -15 137 -5 3 -12 74 -16
158 -4 83 -10 152 -14 152 -5 0 -11 75 -15 168 -4 92 -11 169 -15 172 -7 4
-16 243 -12 313 1 16 8 27 16 27 8 0 16 5 18 11 2 5 22 13 46 16 23 3 42 9 42
13 0 4 36 11 80 14 44 4 80 11 80 16 0 4 34 11 75 15 41 4 75 10 75 15 0 4 33
11 72 15 40 3 75 11 78 16 3 4 38 11 78 15 40 4 72 10 72 14 0 5 27 11 60 15
33 4 60 11 60 15 0 5 20 12 45 16 25 3 45 10 45 15 0 4 23 11 50 15 28 4 50
10 50 15 0 5 18 12 39 15 22 4 42 13 45 20 3 8 12 14 20 14 8 0 16 5 18 11 2
5 22 13 46 16 26 4 42 11 42 19 0 8 9 22 20 31 11 10 20 21 20 26 0 4 5 13 10
20 41 48 50 62 50 74 0 7 5 13 10 13 6 0 10 6 10 14 0 7 9 16 20 19 15 4 20
14 20 36 0 17 4 31 10 31 5 0 13 18 16 40 4 22 10 40 15 40 5 0 9 7 9 15 0 9
7 18 15 21 19 8 21 80 3 87 -10 4 -10 6 0 6 13 1 17 61 3 61 -4 0 -11 28 -14
61 -3 34 -10 65 -15 68 -5 3 -13 25 -17 49 -4 23 -11 42 -15 42 -5 0 -11 14
-15 30 -4 17 -10 30 -15 30 -4 0 -11 11 -14 24 -3 14 -16 26 -31 30 -14 4 -25
11 -25 16 0 6 -7 10 -15 10 -9 0 -18 6 -21 14 -3 8 -16 17 -30 20 -13 4 -24
11 -24 16 0 6 -7 10 -15 10 -9 0 -18 6 -21 14 -3 8 -27 16 -55 20 -27 4 -49
11 -49 16 0 4 -13 11 -30 15 -16 4 -30 10 -30 14 0 5 -19 11 -41 14 -23 3 -45
10 -48 15 -3 5 -27 12 -53 16 -27 3 -69 9 -95 12 -27 4 -51 11 -54 16 -3 5
-29 11 -57 15 -29 3 -52 9 -52 13 0 5 -27 11 -60 15 -33 4 -60 11 -60 16 0 4
-17 11 -37 15 -21 4 -41 12 -45 18 -13 19 -9 66 7 72 8 4 15 12 15 19 0 15
146 165 160 165 5 0 23 12 39 27 43 40 54 48 74 56 9 3 17 11 17 16 0 5 11 12
25 15 14 4 25 10 25 15 0 5 23 15 50 22 28 7 50 17 50 22 0 12 156 167 169
167 6 0 11 7 11 15 0 8 4 15 9 15 5 0 12 14 16 30 4 17 10 30 15 30 4 0 11 12
15 27 3 15 10 30 15 33 5 3 15 28 22 55 7 28 16 52 19 55 4 3 10 21 14 40 4
19 11 38 16 41 5 3 12 41 15 85 4 43 12 82 18 86 8 5 7 8 -1 8 -16 0 -17 57
-2 62 15 5 14 321 0 326 -7 2 -11 37 -11 88 0 92 12 117 65 130 14 3 25 10 25
14 0 4 18 10 41 14 23 4 48 13 56 21 8 8 23 15 34 15 10 0 19 4 19 9 0 5 14
12 30 16 17 4 30 10 30 15 0 5 14 11 30 15 17 4 30 11 30 15 0 5 16 12 35 16
20 3 35 12 35 20 0 8 4 14 9 14 5 0 12 14 16 30 4 17 11 30 16 30 13 0 12
3277 -1 3282 -6 2 -13 56 -17 123 -5 96 -10 123 -25 139 -10 11 -18 23 -18 27
0 4 -10 11 -22 14 -11 4 -31 18 -43 30 -11 13 -33 27 -47 30 -15 4 -29 13 -32
21 -3 8 -12 14 -21 14 -8 0 -15 4 -15 9 0 5 -18 11 -40 15 -22 3 -40 11 -40
16 0 6 -7 10 -15 10 -9 0 -18 6 -21 14 -3 7 -23 16 -45 20 -25 4 -39 12 -39
21 0 10 -10 15 -30 15 -16 0 -30 4 -30 9 0 5 -17 12 -37 16 -21 4 -40 11 -44
16 -3 5 -29 15 -57 21 -29 7 -52 16 -52 20 0 4 -20 10 -45 14 -25 3 -45 10
-45 15 0 4 -20 11 -45 15 -25 3 -45 10 -45 14 0 4 -16 11 -35 14 -19 4 -35 11
-35 15 0 5 -22 11 -50 15 -27 4 -50 11 -50 15 0 5 -24 12 -52 16 -29 4 -56 12
-59 17 -3 5 -31 12 -62 15 -32 3 -57 9 -57 13 0 4 -26 11 -57 15 -32 4 -61 12
-64 17 -4 6 -31 13 -60 16 -30 3 -56 9 -59 13 -3 5 -33 11 -65 15 -33 4 -63
12 -67 18 -9 14 -258 13 -267 -2 -3 -5 -30 -13 -58 -17 -29 -4 -53 -10 -53
-15 0 -4 -31 -11 -70 -14 l-70 -7 0 -550 0 -550 -72 7 c-40 4 -75 10 -78 14
-3 4 -43 11 -90 15 -47 4 -87 11 -90 16 -3 4 -49 11 -103 15 -92 7 -97 8 -97
30 0 12 -4 24 -9 26 -5 2 -12 270 -16 615 -8 611 -8 611 -29 617 -11 3 -42 6
-68 6 -25 0 -48 4 -50 9 -1 5 -70 13 -153 17 -82 4 -152 10 -155 15 -3 4 -107
10 -233 14 -125 5 -227 11 -227 15 0 4 -123 10 -272 14 -152 4 -274 12 -276
17 -5 12 -989 12 -994 0z"/>
<path d="M5066 11936 c-157 -58 -227 -252 -150 -416 40 -84 70 -119 135 -155
69 -37 172 -46 250 -20 76 25 147 96 189 186 29 63 32 78 28 134 -14 163 -144
275 -328 282 -57 2 -98 -2 -124 -11z"/>
<path d="M8253 11802 c-6 -4 -12 -31 -15 -61 -3 -29 -11 -57 -18 -61 -10 -6
-9 -9 1 -14 11 -5 11 -7 2 -12 -7 -3 -13 -18 -13 -34 0 -16 -6 -35 -13 -42 -8
-7 -17 -38 -20 -67 -4 -30 -10 -57 -15 -60 -5 -3 -12 -30 -15 -60 -4 -30 -10
-57 -15 -60 -5 -3 -12 -24 -15 -45 -4 -22 -10 -42 -15 -45 -5 -3 -12 -30 -15
-60 -4 -30 -10 -57 -15 -60 -4 -3 -14 -37 -21 -76 -8 -38 -18 -73 -23 -76 -5
-3 -11 -23 -15 -45 -3 -21 -10 -41 -14 -44 -5 -4 -11 -26 -14 -50 -3 -24 -9
-47 -14 -50 -4 -3 -11 -23 -15 -44 -4 -21 -14 -45 -22 -53 -8 -8 -14 -26 -14
-39 0 -14 -7 -32 -15 -40 -8 -9 -15 -29 -15 -45 0 -16 -4 -29 -9 -29 -5 0 -11
-18 -15 -40 -3 -22 -10 -40 -16 -40 -5 0 -12 -20 -16 -45 -3 -25 -10 -45 -15
-45 -4 0 -11 -16 -15 -35 -3 -19 -10 -35 -15 -35 -5 0 -12 -18 -15 -40 -4 -22
-10 -40 -14 -40 -5 0 -11 -13 -15 -30 -4 -16 -10 -30 -15 -30 -4 0 -11 -16
-14 -35 -4 -19 -11 -35 -16 -35 -4 0 -11 -13 -15 -30 -4 -16 -10 -30 -15 -30
-4 0 -11 -16 -14 -35 -4 -19 -11 -35 -16 -35 -4 0 -11 -13 -15 -30 -4 -16 -10
-30 -15 -30 -5 0 -11 -13 -15 -30 -4 -16 -10 -30 -14 -30 -5 0 -14 -20 -21
-45 -7 -25 -16 -45 -21 -45 -4 0 -10 -13 -14 -30 -4 -16 -10 -30 -15 -30 -5 0
-11 -13 -15 -30 -4 -16 -10 -30 -15 -30 -5 0 -11 -13 -15 -30 -4 -16 -10 -30
-15 -30 -5 0 -11 -13 -15 -30 -4 -16 -10 -30 -15 -30 -5 0 -11 -13 -15 -29 -3
-16 -13 -32 -21 -35 -8 -3 -14 -12 -14 -21 0 -8 -4 -15 -9 -15 -5 0 -12 -11
-15 -25 -4 -14 -11 -25 -16 -25 -6 0 -10 -6 -10 -12 0 -16 -44 -58 -59 -58 -6
0 -11 -4 -11 -9 0 -5 -18 -11 -40 -15 -22 -3 -40 -10 -40 -16 0 -5 -20 -12
-45 -16 -25 -3 -45 -10 -45 -14 0 -4 -16 -11 -35 -14 -19 -4 -35 -11 -35 -16
0 -5 -16 -12 -35 -16 -19 -3 -35 -10 -35 -15 0 -5 -11 -9 -25 -9 -13 0 -28 -6
-32 -13 -4 -7 -30 -18 -58 -25 -27 -7 -52 -17 -55 -22 -3 -5 -19 -12 -35 -16
-17 -4 -43 -20 -58 -36 -16 -15 -35 -28 -43 -28 -16 0 -44 -23 -44 -37 0 -4
-12 -19 -25 -32 -14 -13 -25 -28 -25 -33 0 -6 -11 -21 -24 -33 -13 -12 -27
-32 -31 -43 -3 -12 -11 -22 -16 -22 -5 0 -9 -7 -9 -15 0 -8 -6 -15 -14 -15 -8
0 -17 -13 -21 -30 -4 -16 -10 -30 -15 -30 -4 0 -11 -16 -14 -35 -4 -19 -11
-35 -16 -35 -4 0 -11 -13 -15 -30 -4 -16 -11 -30 -15 -30 -5 0 -12 -22 -16
-50 -4 -27 -10 -50 -15 -50 -4 0 -11 -27 -15 -60 -4 -33 -11 -60 -15 -60 -5 0
-9 -18 -9 -40 0 -27 -6 -42 -17 -49 -12 -7 -14 -13 -7 -18 7 -5 13 -85 18
-223 3 -118 11 -217 15 -220 5 -3 13 -18 16 -33 4 -15 11 -27 15 -27 5 0 11
-13 15 -30 4 -16 11 -30 16 -30 5 0 9 -6 9 -13 0 -8 9 -24 20 -37 11 -13 20
-27 20 -33 0 -5 11 -20 25 -33 24 -22 35 -74 16 -74 -5 0 -12 -13 -16 -30 -4
-16 -10 -30 -15 -30 -4 0 -11 -12 -15 -27 -3 -15 -17 -37 -31 -50 -13 -12 -24
-27 -24 -32 0 -6 -16 -25 -35 -44 -19 -19 -35 -37 -35 -41 0 -10 -56 -66 -65
-66 -7 0 -29 -19 -85 -72 -16 -16 -33 -28 -40 -28 -6 0 -13 -7 -16 -15 -4 -8
-11 -15 -18 -15 -6 0 -19 -9 -29 -20 -9 -11 -24 -20 -32 -20 -8 0 -15 -4 -15
-10 0 -5 -7 -10 -15 -10 -9 0 -18 -6 -21 -14 -3 -8 -19 -18 -35 -21 -16 -4
-29 -11 -29 -16 0 -5 -11 -11 -25 -15 -14 -3 -25 -10 -25 -14 0 -5 -13 -11
-30 -15 -16 -4 -30 -10 -30 -15 0 -4 -14 -10 -31 -14 -31 -6 -59 -27 -59 -44
0 -6 -14 -14 -32 -17 -34 -8 -58 -26 -58 -44 0 -6 -4 -11 -10 -11 -5 0 -10 -5
-10 -10 0 -17 -102 -111 -133 -123 -9 -3 -17 -16 -17 -27 0 -12 -11 -31 -24
-43 -14 -13 -28 -35 -31 -50 -4 -15 -11 -27 -16 -27 -5 0 -9 -7 -9 -15 0 -9
-7 -18 -15 -21 -8 -4 -15 -12 -15 -19 0 -8 -6 -20 -14 -27 -7 -8 -17 -25 -21
-38 -4 -14 -12 -28 -17 -31 -5 -3 -12 -25 -15 -48 -3 -22 -9 -41 -14 -41 -4 0
-11 -16 -15 -35 -3 -19 -10 -35 -15 -35 -4 0 -11 -20 -15 -45 -3 -25 -10 -45
-15 -45 -5 0 -9 -9 -9 -19 0 -11 -7 -26 -15 -34 -11 -12 -12 -17 -2 -21 9 -5
9 -7 0 -12 -7 -3 -13 -21 -13 -39 0 -19 -7 -41 -16 -49 -8 -9 -11 -16 -5 -16
6 0 11 -18 11 -40 0 -22 -4 -40 -9 -40 -15 0 -19 -95 -19 -450 0 -355 4 -450
19 -450 5 0 9 -11 9 -25 0 -14 -5 -25 -11 -25 -6 0 -3 -7 5 -16 9 -8 16 -29
16 -45 0 -16 5 -29 10 -29 6 0 10 -7 10 -15 0 -8 -6 -15 -12 -15 -10 0 -10 -2
-1 -8 7 -4 14 -19 15 -32 2 -19 -3 -26 -29 -33 -18 -6 -33 -13 -33 -18 0 -4
-13 -10 -30 -14 -16 -4 -30 -10 -30 -15 0 -5 -13 -11 -30 -15 -16 -4 -30 -10
-30 -15 0 -5 -14 -11 -30 -15 -16 -4 -30 -10 -30 -15 0 -5 -14 -11 -30 -15
-16 -4 -30 -10 -30 -15 0 -5 -14 -11 -30 -15 -16 -4 -30 -10 -30 -15 0 -5 -14
-11 -30 -15 -16 -4 -30 -10 -30 -15 0 -4 -12 -11 -26 -14 -14 -4 -36 -18 -48
-31 -13 -14 -28 -25 -34 -25 -6 0 -27 -16 -48 -35 -20 -19 -41 -35 -45 -35 -5
0 -33 -25 -63 -55 -29 -30 -58 -55 -62 -55 -5 0 -20 -12 -33 -25 -13 -14 -27
-25 -32 -25 -5 0 -9 -7 -9 -15 0 -8 -9 -23 -20 -32 -11 -10 -20 -21 -20 -26 0
-5 -7 -15 -15 -23 -8 -9 -15 -24 -15 -35 0 -10 -4 -19 -10 -19 -5 0 -10 -6
-10 -14 0 -8 -7 -22 -16 -30 -8 -9 -11 -16 -5 -16 13 0 15 -57 3 -62 -5 -1
-12 -51 -15 -110 -6 -87 -4 -110 8 -122 16 -16 20 -36 7 -36 -5 0 -12 -343
-16 -762 -4 -455 -11 -764 -17 -766 -5 -2 -9 -59 -9 -127 0 -90 -4 -127 -13
-137 -12 -11 -12 -16 0 -27 11 -10 12 -31 7 -95 -5 -68 -4 -85 10 -98 9 -9 16
-20 16 -25 0 -5 14 -21 31 -35 19 -17 32 -40 36 -63 3 -19 9 -35 14 -35 4 0 9
-15 11 -32 3 -30 6 -33 36 -33 19 0 32 -5 32 -12 0 -7 5 -13 10 -13 6 0 10 -6
10 -14 0 -18 355 -160 704 -282 1532 -539 3065 -849 4851 -983 149 -12 302
-23 340 -26 388 -31 1695 -59 1695 -37 0 8 22 12 65 12 42 0 65 -4 65 -11 0
-9 42 -10 158 -6 86 3 288 11 447 16 995 36 1855 119 2765 267 927 151 1779
358 2650 646 406 134 609 207 905 326 292 117 305 123 305 138 0 8 5 14 10 14
6 0 10 4 10 10 0 5 15 33 34 62 18 29 36 63 40 76 4 12 12 22 17 22 6 0 7 4 4
10 -12 19 6 80 24 80 14 0 14 2 1 10 -10 6 -16 32 -18 82 -3 40 -8 75 -12 78
-10 6 -30 918 -30 1328 0 164 -4 282 -9 284 -6 2 -11 114 -13 262 -2 195 -6
260 -15 263 -7 3 -13 18 -13 33 0 16 -6 35 -13 42 -8 7 -17 25 -20 40 -4 15
-17 30 -28 33 -23 8 -149 127 -149 142 0 14 -38 42 -67 49 -30 8 -53 26 -53
42 0 6 -14 14 -32 17 -33 8 -40 12 -90 58 -17 16 -46 31 -64 34 -19 3 -34 9
-34 14 0 4 -13 10 -29 14 -16 3 -32 13 -35 21 -3 8 -12 14 -21 14 -8 0 -15 4
-15 9 0 5 -13 12 -30 16 -16 4 -30 10 -30 15 0 4 -12 11 -27 15 -15 3 -37 17
-50 31 -12 13 -25 24 -28 24 -4 0 -13 6 -21 14 -15 16 -19 66 -5 66 5 0 13 30
17 68 3 37 10 69 15 72 4 3 11 61 15 128 4 67 11 122 16 122 11 0 10 457 -1
462 -6 2 -13 55 -17 118 -4 63 -11 117 -15 120 -4 3 -11 37 -15 75 -4 39 -11
73 -16 76 -5 3 -12 31 -15 62 -3 32 -9 57 -14 57 -4 0 -11 17 -15 38 -4 20
-11 39 -15 43 -5 3 -13 27 -18 53 -5 27 -13 51 -19 55 -5 3 -13 21 -17 39 -3
17 -10 32 -15 32 -5 0 -11 13 -15 30 -4 16 -11 30 -16 30 -5 0 -9 11 -9 25 0
16 -6 25 -15 25 -8 0 -15 7 -15 15 0 9 -7 18 -15 21 -8 4 -15 12 -15 20 0 8
-9 22 -20 31 -11 10 -20 22 -20 27 0 5 -11 18 -23 30 -13 12 -27 34 -30 48 -4
15 -17 30 -29 34 -12 3 -34 20 -49 36 -15 17 -31 28 -37 24 -12 -7 -58 35 -67
62 -4 16 -14 22 -34 22 -25 0 -37 7 -88 49 -6 6 -23 13 -36 16 -14 4 -28 13
-31 21 -3 8 -12 14 -21 14 -8 0 -15 4 -15 10 0 5 -11 12 -25 16 -14 3 -25 10
-25 14 0 5 -13 11 -29 15 -16 3 -32 13 -35 21 -3 8 -12 14 -21 14 -8 0 -15 4
-15 9 0 5 -10 13 -22 16 -11 4 -31 18 -43 31 -12 13 -28 24 -34 24 -6 0 -14 7
-17 15 -3 8 -16 17 -27 21 -27 8 -154 137 -162 165 -4 10 -11 19 -16 19 -5 0
-9 7 -9 15 0 9 -6 18 -14 21 -8 3 -17 16 -20 30 -4 13 -10 24 -15 24 -5 0 -12
13 -16 29 -3 16 -13 32 -21 35 -8 3 -14 12 -14 21 0 8 -4 15 -10 15 -5 0 -10
14 -10 30 0 17 4 30 10 30 5 0 12 16 16 35 3 19 10 35 14 35 5 0 11 14 15 30
4 17 11 30 15 30 5 0 12 17 16 38 4 20 11 40 16 43 5 3 11 30 15 60 3 30 11
57 17 61 7 5 11 72 11 195 l0 188 -140 7 c-77 4 -189 12 -250 18 -428 39 -647
61 -690 69 -98 17 -511 102 -587 122 -42 10 -88 19 -102 19 -28 0 -410 117
-691 212 -463 156 -1034 375 -1390 533 -394 174 -953 450 -1457 719 -131 69
-240 126 -244 126 -18 0 -940 459 -1354 675 -290 151 -1096 556 -1255 630
-221 104 -732 327 -881 385 -11 5 -25 5 -31 2z m-142 -3690 c129 -36 229 -118
283 -232 27 -57 31 -76 31 -151 0 -80 -2 -90 -42 -170 -51 -102 -119 -176
-200 -216 -55 -26 -65 -28 -188 -28 -129 0 -130 0 -193 34 -218 118 -290 442
-142 638 42 56 114 107 179 127 66 21 194 20 272 -2z m-1143 -2145 c105 -37
176 -82 257 -162 137 -138 199 -325 161 -489 -18 -76 -79 -212 -120 -266 -89
-118 -208 -203 -332 -235 -76 -20 -242 -20 -319 0 -196 50 -333 185 -403 398
-40 120 -48 199 -32 308 34 238 156 389 370 461 46 15 79 18 200 15 125 -3
155 -7 218 -30z m-2718 -2287 c0 -5 -4 -10 -10 -10 -5 0 -10 5 -10 10 0 6 5
10 10 10 6 0 10 -4 10 -10z m4398 -116 c407 -82 666 -444 649 -904 -4 -109 -8
-137 -36 -215 -166 -459 -531 -701 -977 -646 -315 39 -547 216 -676 514 -67
154 -83 232 -83 397 0 153 11 212 59 332 41 102 88 169 186 268 140 140 283
218 469 255 94 19 315 18 409 -1z m-4451 -1926 c-3 -8 -6 -5 -6 6 -1 11 2 17
5 13 3 -3 4 -12 1 -19z"/>
<path d="M6597 11059 c-143 -34 -225 -149 -215 -303 8 -126 72 -231 170 -280
44 -22 66 -26 137 -26 107 0 168 25 228 94 92 104 118 226 70 329 -65 143
-233 223 -390 186z"/>
<path d="M5510 9400 c-75 -10 -120 -31 -173 -79 -116 -107 -127 -309 -26 -460
65 -98 151 -141 280 -141 99 0 171 29 237 97 69 70 105 147 110 235 13 215
-189 379 -428 348z"/>
<path d="M19394 3847 c-8 -9 -7 -16 3 -25 11 -11 13 -8 13 13 0 28 -1 29 -16
12z"/>
</g>
</svg>
