<!DOCTYPE svg PUBLIC "-//W3C//DTD SVG 20010904//EN" "http://www.w3.org/TR/2001/REC-SVG-20010904/DTD/svg10.dtd">
<svg version="1.0" xmlns="http://www.w3.org/2000/svg" width="1600px" height="773px" viewBox="0 0 16000 7730" preserveAspectRatio="xMidYMid meet">
<g id="layer101" fill="#3a5367" stroke="none">
 <path d="M0 3865 l0 -3865 8000 0 8000 0 0 3865 0 3865 -8000 0 -8000 0 0 -3865z"/>
 </g>
<g id="layer102" fill="#305b83" stroke="none">
 <path d="M0 3865 l0 -3865 8000 0 8000 0 0 3865 0 3865 -8000 0 -8000 0 0 -3865z m3935 3165 c285 -15 362 -24 787 -95 77 -13 245 -54 408 -98 90 -25 258 -82 378 -128 107 -42 113 -46 133 -86 11 -23 18 -46 15 -51 -3 -5 -8 -146 -11 -313 -4 -171 -11 -312 -17 -324 -17 -35 -94 -99 -154 -130 -81 -40 -85 -46 -74 -86 17 -59 12 -256 -9 -336 -19 -71 -47 -129 -76 -153 -8 -7 -12 -16 -9 -21 3 -5 2 -9 -3 -9 -4 0 -21 -11 -37 -25 -16 -14 -33 -25 -38 -25 -6 0 -42 -22 -81 -50 -50 -34 -79 -62 -95 -92 l-22 -43 20 -53 c11 -29 20 -75 20 -102 l0 -50 -48 0 c-146 0 -406 -49 -597 -112 -285 -95 -394 -141 -680 -285 -93 -48 -190 -96 -215 -107 -25 -12 -97 -48 -160 -80 -294 -151 -559 -284 -605 -304 -27 -12 -81 -35 -118 -52 -38 -16 -73 -30 -78 -30 -4 0 -11 17 -15 38 -3 20 -15 69 -26 107 -11 39 -22 79 -25 90 -3 11 -12 35 -20 53 -8 18 -21 56 -30 85 -8 29 -21 63 -28 77 -7 14 -37 73 -66 132 l-52 107 -85 33 c-67 26 -93 43 -126 79 -76 84 -101 250 -51 338 l25 43 -28 41 c-27 41 -101 103 -151 128 -74 37 -161 138 -161 188 0 11 -4 22 -9 25 -28 18 -41 312 -17 382 6 18 -2 25 -71 59 -48 24 -98 58 -130 91 l-52 52 -1 260 c0 144 -2 267 -5 274 -2 7 -6 37 -9 67 -4 44 -1 60 15 79 10 14 19 30 19 37 0 13 87 54 195 92 119 42 287 93 304 93 9 0 21 4 26 9 6 5 64 21 130 36 66 15 134 31 150 35 57 16 390 69 525 84 209 23 243 25 425 32 94 3 172 8 175 11 6 6 257 -2 535 -17z m6277 -3076 l3 -327 44 37 c74 62 158 94 267 103 279 21 491 -144 574 -447 19 -69 24 -114 26 -245 4 -283 -48 -461 -175 -598 -114 -122 -285 -173 -479 -143 -100 15 -174 50 -238 114 -18 17 -36 32 -39 32 -3 0 -5 -15 -5 -34 0 -18 -3 -48 -6 -65 l-6 -31 -179 0 -179 0 0 965 0 965 195 0 195 0 2 -326z m-2483 -209 c77 -20 172 -64 226 -103 44 -31 120 -108 120 -121 0 -4 -41 -52 -91 -105 l-91 -97 -49 46 c-80 74 -205 112 -339 102 -95 -7 -148 -30 -217 -94 -49 -47 -82 -105 -94 -168 l-6 -35 463 -2 464 -3 3 -65 c8 -160 -30 -367 -88 -481 -44 -85 -174 -205 -265 -244 -53 -22 -227 -55 -291 -55 -86 0 -243 37 -324 76 -151 74 -284 243 -324 414 -55 235 -40 426 48 605 46 93 158 210 248 259 76 42 100 50 218 77 104 23 291 20 389 -6z m1491 0 c30 -8 64 -19 75 -24 11 -5 42 -19 69 -32 54 -25 157 -106 182 -144 16 -24 15 -26 -29 -78 -25 -28 -67 -74 -92 -102 l-46 -50 -27 32 c-67 79 -215 130 -351 120 -138 -9 -235 -69 -289 -180 -18 -35 -32 -76 -32 -91 l0 -26 460 0 460 0 0 -138 c0 -226 -38 -361 -136 -487 -97 -125 -207 -187 -382 -214 -95 -14 -150 -14 -247 4 -103 18 -155 37 -235 84 -172 103 -282 283 -306 501 -11 105 -7 259 10 338 31 149 142 311 272 397 61 41 198 91 284 105 76 12 293 3 360 -15z m3035 0 c97 -25 203 -83 278 -154 37 -35 66 -68 65 -72 -2 -4 -43 -51 -92 -103 l-88 -96 -44 39 c-93 81 -213 119 -346 108 -160 -14 -285 -119 -312 -264 l-5 -33 466 0 466 0 -6 -157 c-9 -259 -57 -394 -183 -518 -131 -129 -305 -187 -511 -171 -180 15 -314 74 -428 190 -131 134 -183 274 -192 518 -6 138 -4 152 22 247 34 127 81 208 170 295 104 101 204 153 353 181 94 18 299 13 387 -10z m-6401 -16 c253 -46 417 -143 559 -329 120 -156 167 -324 167 -589 -1 -237 -27 -355 -115 -516 -86 -156 -203 -267 -360 -340 -163 -77 -171 -78 -617 -82 l-398 -5 0 936 0 936 352 0 c215 0 375 -4 412 -11z m7386 -442 l0 -454 30 -42 c21 -28 50 -51 93 -72 60 -29 65 -30 187 -27 l125 2 3 -175 2 -176 -54 -13 c-129 -31 -274 27 -364 144 -12 16 -24 27 -26 25 -3 -2 -6 -37 -8 -77 l-3 -72 -182 0 -183 0 0 695 0 695 190 0 190 0 0 -453z"/>
 <path d="M2525 6541 c-75 -24 -115 -69 -150 -169 -17 -46 -18 -59 -6 -115 14 -71 46 -117 112 -162 86 -58 244 -43 309 31 63 72 82 161 52 246 -42 118 -123 179 -236 177 -34 -1 -70 -4 -81 -8z"/>
 <path d="M2090 5709 c-89 -37 -125 -147 -77 -239 41 -80 126 -101 225 -55 44 21 56 32 74 71 33 76 10 156 -60 209 -30 22 -123 31 -162 14z"/>
 <path d="M2443 5020 c-50 -20 -75 -102 -50 -162 35 -84 175 -72 213 18 28 67 -32 155 -105 153 -20 0 -46 -4 -58 -9z"/>
 <path d="M10355 3453 c-62 -19 -98 -44 -124 -87 -20 -32 -21 -47 -21 -322 1 -311 1 -312 55 -356 48 -40 72 -49 144 -55 145 -12 226 24 279 125 41 78 52 140 52 294 0 186 -30 288 -107 360 -58 54 -177 72 -278 41z"/>
 <path d="M7197 2880 c2 -19 21 -69 41 -110 32 -65 44 -79 90 -107 68 -40 144 -50 227 -28 79 21 122 56 153 123 22 50 34 133 21 147 -3 2 -124 5 -271 7 l-266 3 5 -35z"/>
 <path d="M8684 2880 c4 -23 16 -63 27 -89 51 -112 117 -160 232 -168 65 -5 80 -2 137 24 96 44 140 112 140 221 l0 42 -254 0 c-140 0 -262 3 -272 7 -15 6 -16 2 -10 -37z"/>
 <path d="M11720 2886 c0 -47 44 -139 89 -187 57 -60 130 -84 226 -73 131 14 205 90 221 228 l7 56 -272 0 -271 0 0 -24z"/>
 <path d="M5490 2806 l0 -626 123 0 c223 0 334 35 423 133 56 62 87 126 115 237 19 74 21 102 16 284 -5 217 -13 259 -65 363 -44 86 -108 147 -200 191 l-77 37 -167 3 -168 4 0 -626z"/>
 </g>
<g id="layer103" fill="#698195" stroke="none">
 <path d="M0 3865 l0 -3865 8000 0 8000 0 0 3865 0 3865 -8000 0 -8000 0 0 -3865z m3935 3165 c285 -15 362 -24 787 -95 77 -13 245 -54 408 -98 90 -25 258 -82 378 -128 107 -42 113 -46 133 -86 11 -23 18 -46 15 -51 -3 -5 -8 -146 -11 -313 -4 -171 -11 -312 -17 -324 -17 -35 -94 -99 -154 -130 -81 -40 -85 -46 -74 -86 17 -59 12 -256 -9 -336 -19 -71 -47 -129 -76 -153 -8 -7 -12 -16 -9 -21 3 -5 2 -9 -3 -9 -4 0 -21 -11 -37 -25 -16 -14 -33 -25 -38 -25 -6 0 -42 -22 -81 -50 -50 -34 -79 -62 -95 -92 l-22 -43 20 -53 c11 -29 20 -75 20 -102 l0 -50 -48 0 c-146 0 -406 -49 -597 -112 -285 -95 -394 -141 -680 -285 -93 -48 -190 -96 -215 -107 -25 -12 -97 -48 -160 -80 -294 -151 -559 -284 -605 -304 -27 -12 -81 -35 -118 -52 -38 -16 -73 -30 -78 -30 -4 0 -11 17 -15 38 -3 20 -15 69 -26 107 -11 39 -22 79 -25 90 -3 11 -12 35 -20 53 -8 18 -21 56 -30 85 -8 29 -21 63 -28 77 -7 14 -37 73 -66 132 l-52 107 -85 33 c-67 26 -93 43 -126 79 -76 84 -101 250 -51 338 l25 43 -28 41 c-27 41 -101 103 -151 128 -74 37 -161 138 -161 188 0 11 -4 22 -9 25 -28 18 -41 312 -17 382 6 18 -2 25 -71 59 -48 24 -98 58 -130 91 l-52 52 -1 260 c0 144 -2 267 -5 274 -2 7 -6 37 -9 67 -4 44 -1 60 15 79 10 14 19 30 19 37 0 13 87 54 195 92 119 42 287 93 304 93 9 0 21 4 26 9 6 5 64 21 130 36 66 15 134 31 150 35 57 16 390 69 525 84 209 23 243 25 425 32 94 3 172 8 175 11 6 6 257 -2 535 -17z m1577 -2539 c143 -56 288 -182 393 -341 70 -106 140 -230 130 -230 -3 0 -34 23 -68 52 -101 84 -199 143 -288 172 -73 24 -105 29 -239 33 -242 8 -403 -18 -677 -110 -319 -108 -397 -144 -1353 -629 -549 -278 -885 -395 -1224 -428 -165 -15 -531 -13 -587 4 -139 43 -289 158 -397 307 -48 67 -173 282 -167 288 3 2 26 -16 52 -40 102 -95 206 -159 328 -200 66 -23 84 -24 290 -24 204 1 228 3 334 28 192 46 424 125 643 221 68 29 391 188 718 353 327 164 654 322 725 350 456 179 679 224 1100 219 212 -2 235 -4 287 -25z m4700 -537 l3 -327 44 37 c74 62 158 94 267 103 279 21 491 -144 574 -447 19 -69 24 -114 26 -245 4 -283 -48 -461 -175 -598 -114 -122 -285 -173 -479 -143 -100 15 -174 50 -238 114 -18 17 -36 32 -39 32 -3 0 -5 -15 -5 -34 0 -18 -3 -48 -6 -65 l-6 -31 -179 0 -179 0 0 965 0 965 195 0 195 0 2 -326z m-2483 -209 c77 -20 172 -64 226 -103 44 -31 120 -108 120 -121 0 -4 -41 -52 -91 -105 l-91 -97 -49 46 c-80 74 -205 112 -339 102 -95 -7 -148 -30 -217 -94 -49 -47 -82 -105 -94 -168 l-6 -35 463 -2 464 -3 3 -65 c8 -160 -30 -367 -88 -481 -44 -85 -174 -205 -265 -244 -53 -22 -227 -55 -291 -55 -86 0 -243 37 -324 76 -151 74 -284 243 -324 414 -55 235 -40 426 48 605 46 93 158 210 248 259 76 42 100 50 218 77 104 23 291 20 389 -6z m1491 0 c30 -8 64 -19 75 -24 11 -5 42 -19 69 -32 54 -25 157 -106 182 -144 16 -24 15 -26 -29 -78 -25 -28 -67 -74 -92 -102 l-46 -50 -27 32 c-67 79 -215 130 -351 120 -138 -9 -235 -69 -289 -180 -18 -35 -32 -76 -32 -91 l0 -26 460 0 460 0 0 -138 c0 -226 -38 -361 -136 -487 -97 -125 -207 -187 -382 -214 -95 -14 -150 -14 -247 4 -103 18 -155 37 -235 84 -172 103 -282 283 -306 501 -11 105 -7 259 10 338 31 149 142 311 272 397 61 41 198 91 284 105 76 12 293 3 360 -15z m3035 0 c97 -25 203 -83 278 -154 37 -35 66 -68 65 -72 -2 -4 -43 -51 -92 -103 l-88 -96 -44 39 c-93 81 -213 119 -346 108 -160 -14 -285 -119 -312 -264 l-5 -33 466 0 466 0 -6 -157 c-9 -259 -57 -394 -183 -518 -131 -129 -305 -187 -511 -171 -180 15 -314 74 -428 190 -131 134 -183 274 -192 518 -6 138 -4 152 22 247 34 127 81 208 170 295 104 101 204 153 353 181 94 18 299 13 387 -10z m-6401 -16 c253 -46 417 -143 559 -329 120 -156 167 -324 167 -589 -1 -237 -27 -355 -115 -516 -86 -156 -203 -267 -360 -340 -163 -77 -171 -78 -617 -82 l-398 -5 0 936 0 936 352 0 c215 0 375 -4 412 -11z m7386 -442 l0 -454 30 -42 c21 -28 50 -51 93 -72 60 -29 65 -30 187 -27 l125 2 3 -175 2 -176 -54 -13 c-129 -31 -274 27 -364 144 -12 16 -24 27 -26 25 -3 -2 -6 -37 -8 -77 l-3 -72 -182 0 -183 0 0 695 0 695 190 0 190 0 0 -453z"/>
 <path d="M2525 6541 c-75 -24 -115 -69 -150 -169 -17 -46 -18 -59 -6 -115 14 -71 46 -117 112 -162 86 -58 244 -43 309 31 63 72 82 161 52 246 -42 118 -123 179 -236 177 -34 -1 -70 -4 -81 -8z"/>
 <path d="M2090 5709 c-89 -37 -125 -147 -77 -239 41 -80 126 -101 225 -55 44 21 56 32 74 71 33 76 10 156 -60 209 -30 22 -123 31 -162 14z"/>
 <path d="M2443 5020 c-50 -20 -75 -102 -50 -162 35 -84 175 -72 213 18 28 67 -32 155 -105 153 -20 0 -46 -4 -58 -9z"/>
 <path d="M10355 3453 c-62 -19 -98 -44 -124 -87 -20 -32 -21 -47 -21 -322 1 -311 1 -312 55 -356 48 -40 72 -49 144 -55 145 -12 226 24 279 125 41 78 52 140 52 294 0 186 -30 288 -107 360 -58 54 -177 72 -278 41z"/>
 <path d="M7197 2880 c2 -19 21 -69 41 -110 32 -65 44 -79 90 -107 68 -40 144 -50 227 -28 79 21 122 56 153 123 22 50 34 133 21 147 -3 2 -124 5 -271 7 l-266 3 5 -35z"/>
 <path d="M8684 2880 c4 -23 16 -63 27 -89 51 -112 117 -160 232 -168 65 -5 80 -2 137 24 96 44 140 112 140 221 l0 42 -254 0 c-140 0 -262 3 -272 7 -15 6 -16 2 -10 -37z"/>
 <path d="M11720 2886 c0 -47 44 -139 89 -187 57 -60 130 -84 226 -73 131 14 205 90 221 228 l7 56 -272 0 -271 0 0 -24z"/>
 <path d="M5490 2806 l0 -626 123 0 c223 0 334 35 423 133 56 62 87 126 115 237 19 74 21 102 16 284 -5 217 -13 259 -65 363 -44 86 -108 147 -200 191 l-77 37 -167 3 -168 4 0 -626z"/>
 </g>
<g id="layer104" fill="#ffffff" stroke="none">
 <path d="M0 3865 l0 -3865 8000 0 8000 0 0 3865 0 3865 -8000 0 -8000 0 0 -3865z m3943 3165 c565 -28 1081 -134 1565 -321 108 -42 114 -46 133 -86 11 -23 18 -46 15 -51 -3 -5 -8 -146 -11 -313 -4 -171 -11 -312 -17 -324 -17 -35 -94 -99 -154 -130 -81 -40 -85 -46 -74 -86 17 -59 12 -256 -9 -337 -18 -68 -70 -168 -98 -185 -6 -4 -18 -13 -25 -21 -8 -7 -29 -20 -48 -29 -58 -28 -133 -90 -163 -135 l-28 -42 20 -55 c12 -31 21 -77 21 -104 l0 -47 -137 -13 c-227 -20 -407 -63 -658 -154 -208 -76 -305 -121 -900 -421 -523 -264 -778 -386 -805 -386 -5 0 -12 17 -16 38 -10 56 -38 155 -78 269 -41 119 -60 163 -124 290 l-46 92 -84 33 c-67 26 -93 43 -126 79 -76 84 -101 250 -51 338 l25 43 -28 41 c-27 41 -101 103 -151 128 -83 41 -142 116 -177 224 -15 47 -19 89 -19 200 0 77 3 152 7 166 6 25 2 29 -70 65 -47 23 -97 58 -129 90 -48 47 -53 57 -53 96 0 107 -11 547 -15 577 -3 23 2 41 15 59 11 13 20 30 20 37 0 31 359 157 668 235 171 43 553 106 757 125 366 34 597 38 1048 15z m7167 -1074 c89 -16 177 -58 242 -115 l47 -42 7 71 7 70 178 0 179 0 0 -720 0 -720 -190 0 -190 0 0 510 0 510 -37 41 c-50 55 -100 79 -189 88 -119 14 -191 -13 -228 -84 -20 -39 -21 -54 -24 -552 l-3 -513 -195 0 -195 0 3 548 c3 536 4 548 26 613 29 88 93 182 149 221 111 76 256 102 413 74z m1829 -12 c103 -26 219 -91 295 -165 l69 -68 -74 -81 c-41 -45 -83 -94 -95 -108 l-21 -25 -44 43 c-157 153 -446 154 -580 2 -39 -45 -79 -134 -79 -177 l0 -25 461 0 462 0 -6 -172 c-4 -137 -9 -189 -27 -248 -76 -264 -253 -412 -527 -442 -228 -24 -443 53 -582 209 -61 69 -124 192 -152 298 -33 122 -33 369 -1 480 37 126 85 209 177 300 115 116 230 171 405 195 81 11 245 3 319 -16z m-3949 -19 c58 -8 128 -22 155 -31 171 -56 287 -160 345 -309 21 -53 24 -77 24 -200 1 -121 -2 -147 -21 -193 -42 -104 -134 -194 -234 -229 -27 -10 -49 -20 -49 -23 1 -3 22 -15 49 -27 55 -26 131 -98 166 -157 53 -91 70 -244 40 -361 -49 -186 -195 -311 -430 -366 -82 -19 -128 -22 -527 -26 l-438 -5 0 971 0 971 408 0 c306 0 433 -4 512 -15z m1220 -1140 l0 -1155 48 37 c90 69 192 103 312 103 258 0 454 -166 531 -450 21 -75 24 -108 24 -275 0 -177 -2 -197 -28 -289 -75 -268 -233 -410 -480 -431 -147 -13 -273 25 -374 111 l-53 46 0 -35 c0 -19 -3 -49 -6 -66 l-6 -31 -179 0 -179 0 0 1795 0 1795 195 0 195 0 0 -1155z m-8317 -170 c49 -50 42 -121 -14 -150 -109 -57 -197 67 -109 155 30 30 90 27 123 -5z m3619 -124 c143 -56 288 -182 393 -341 70 -106 140 -230 130 -230 -3 0 -34 23 -68 52 -101 84 -199 143 -288 172 -73 24 -105 29 -239 33 -243 8 -406 -19 -676 -111 -205 -70 -193 -64 -204 -104 -5 -21 -20 -77 -34 -127 -13 -49 -27 -108 -30 -130 -4 -22 -11 -60 -16 -85 -34 -157 -42 -205 -60 -347 -59 -478 -61 -502 -38 -525 10 -10 28 -18 41 -18 52 0 193 -35 257 -63 48 -22 100 -100 100 -152 0 -38 -28 -92 -58 -114 -16 -11 -73 -33 -128 -49 -65 -20 -100 -35 -102 -45 -2 -9 18 -31 48 -54 150 -112 172 -150 171 -306 l0 -94 59 -24 c39 -15 61 -30 64 -44 8 -28 7 -892 0 -948 -6 -44 -8 -46 -73 -80 -58 -30 -161 -67 -301 -109 -48 -14 -163 -17 -192 -6 -16 7 -18 24 -18 158 0 91 -4 150 -10 150 -5 0 -41 -5 -80 -12 l-70 -12 0 -173 c0 -130 -3 -175 -12 -178 -24 -9 -393 -29 -533 -29 -138 0 -455 20 -465 30 -3 3 -6 81 -8 174 -3 133 -6 169 -17 174 -8 3 -48 8 -90 12 l-75 7 0 -150 0 -150 -37 -7 c-63 -10 -95 -7 -194 19 -154 40 -296 98 -346 143 l-23 19 0 485 c0 377 3 488 13 495 6 6 37 20 67 32 l55 23 0 101 c1 93 3 107 31 162 24 49 42 67 97 105 91 61 121 110 69 110 -19 0 -153 42 -192 60 -14 6 -35 26 -48 45 -32 49 -29 105 8 170 24 43 37 54 72 65 24 8 48 17 53 20 6 4 52 15 103 25 85 17 92 21 92 43 0 42 -20 316 -25 338 l-5 22 -62 -20 c-115 -36 -312 -76 -429 -87 -170 -16 -533 -14 -590 3 -139 43 -289 158 -397 307 -48 67 -173 282 -167 288 3 2 26 -16 52 -40 102 -95 206 -159 328 -200 66 -23 84 -24 290 -24 204 1 228 3 334 28 192 46 424 125 643 221 68 29 391 188 718 353 327 164 654 322 725 350 456 179 679 224 1100 219 212 -2 235 -4 287 -25z m-3313 -357 c36 -46 24 -106 -26 -132 -84 -45 -162 56 -102 132 16 21 29 26 64 26 35 0 48 -5 64 -26z m-418 -243 c58 -58 23 -141 -61 -141 -54 0 -80 26 -80 80 0 84 83 119 141 61z m5899 -135 c85 -15 199 -61 263 -104 41 -29 137 -121 137 -132 -1 -3 -42 -49 -93 -103 l-92 -99 -45 41 c-109 100 -285 137 -433 91 -109 -34 -202 -136 -222 -243 l-7 -37 463 -2 464 -3 -2 -138 c-3 -257 -56 -411 -183 -537 -121 -120 -247 -164 -460 -164 -118 1 -145 4 -215 27 -112 37 -197 90 -275 174 -109 117 -160 240 -181 438 -18 170 2 297 68 435 94 196 278 326 508 360 82 12 225 10 305 -4z m1543 -11 c103 -27 206 -85 281 -156 l70 -66 -94 -102 c-52 -55 -97 -101 -100 -101 -3 0 -22 16 -41 36 -103 108 -329 147 -472 81 -92 -42 -165 -134 -182 -229 l-7 -38 462 0 462 0 -5 -172 c-3 -118 -10 -192 -22 -233 -40 -146 -133 -276 -247 -348 -197 -126 -516 -126 -722 -2 -155 93 -246 219 -297 412 -29 107 -32 347 -5 443 28 105 85 207 154 282 119 126 215 174 432 212 51 9 277 -4 333 -19z m2977 11 c104 -19 178 -49 265 -107 64 -43 135 -111 135 -129 0 -3 -41 -49 -91 -103 l-92 -98 -31 29 c-92 86 -176 117 -316 117 -95 0 -111 -3 -167 -29 -97 -45 -168 -133 -187 -233 l-5 -33 466 0 466 0 -6 -157 c-9 -258 -57 -392 -182 -519 -121 -122 -246 -168 -455 -168 -212 0 -353 55 -486 189 -53 54 -82 94 -113 156 -66 135 -76 187 -76 394 0 172 1 183 28 255 107 291 344 447 682 449 50 0 124 -6 165 -13z m-6320 -32 c279 -52 490 -206 606 -439 76 -155 88 -214 88 -475 1 -262 -7 -304 -84 -466 -88 -182 -213 -309 -385 -390 -164 -76 -170 -77 -617 -82 l-398 -3 0 935 0 936 354 0 c278 0 371 -3 436 -16z m7360 -437 l0 -454 31 -42 c20 -29 49 -51 87 -69 52 -25 69 -27 187 -28 l130 -2 3 -173 c2 -111 -1 -176 -8 -183 -6 -6 -51 -10 -103 -10 -123 1 -186 25 -261 101 -31 30 -56 59 -56 64 0 5 -4 9 -10 9 -6 0 -10 -32 -10 -75 l0 -75 -185 0 -185 0 0 695 0 695 190 0 190 0 0 -453z"/>
 <path d="M2504 6531 c-57 -26 -108 -90 -128 -160 -20 -70 -20 -75 -1 -139 29 -98 109 -160 217 -169 142 -13 242 65 263 208 8 53 -18 139 -60 193 -59 78 -197 110 -291 67z"/>
 <path d="M2083 5705 c-17 -7 -44 -32 -58 -54 -35 -53 -42 -109 -21 -166 70 -182 374 -73 318 114 -13 41 -64 98 -100 112 -34 13 -102 10 -139 -6z"/>
 <path d="M2440 5017 c-59 -29 -76 -133 -29 -183 44 -46 137 -40 179 13 36 46 20 131 -32 167 -27 19 -83 20 -118 3z"/>
 <path d="M12415 5048 c22 -100 68 -183 122 -221 77 -53 213 -56 301 -7 65 37 111 124 112 213 l0 47 -271 0 -271 0 7 -32z"/>
 <path d="M8470 5354 l0 -266 228 5 c249 5 279 11 341 64 53 45 76 107 76 203 0 103 -30 162 -103 207 -71 42 -144 53 -360 53 l-182 0 0 -266z"/>
 <path d="M8470 4570 l0 -242 213 4 c196 3 216 5 262 26 99 46 129 101 124 230 -5 103 -33 148 -116 189 -57 28 -60 28 -270 31 l-213 3 0 -241z"/>
 <path d="M10354 3452 c-57 -20 -100 -51 -126 -90 -16 -24 -18 -57 -18 -321 l0 -295 48 -46 c55 -53 104 -70 199 -70 81 0 128 16 174 58 50 44 83 108 99 188 17 85 8 333 -14 401 -22 68 -71 132 -126 162 -59 33 -165 39 -236 13z"/>
 <path d="M7204 2863 c3 -25 21 -74 39 -107 42 -76 108 -121 195 -130 70 -8 162 14 210 51 46 35 82 114 82 181 l0 52 -266 0 -267 0 7 -47z"/>
 <path d="M8680 2906 c0 -3 12 -42 26 -87 44 -139 118 -193 265 -193 53 0 78 6 125 30 78 38 114 95 121 188 l6 66 -272 0 c-149 0 -271 -2 -271 -4z"/>
 <path d="M11724 2871 c16 -102 85 -197 164 -228 54 -21 146 -23 210 -4 86 24 145 105 158 214 l7 57 -273 0 -273 0 7 -39z"/>
 <path d="M5490 2805 l0 -625 123 0 c223 0 335 35 422 132 56 62 75 98 106 198 22 69 24 92 24 290 0 177 -3 226 -18 279 -41 144 -116 245 -223 299 -82 41 -145 52 -299 52 l-135 0 0 -625z"/>
 </g>

</svg>